<svg xmlns="http://www.w3.org/2000/svg" viewBox="0 0 262 73" aria-hidden="true" fill="#fff"><path d="M217.4 58.5c1.5-4.1 7.1-19.7 7.4-20.5l.2-.5c.4-1.2.8-2.3.2-3.1-.4-.5-1.2-.7-2.7-.7-1.3 0-4.9 0-7.5-.1h-11l1.5-4.2H262c-.3.7-.5 1.3-.6 1.4-.1.1-.1.2-.2.4-.3.6-.7 1.4-1.3 1.8-.5.3-1.1.3-2 .4-.2 0-.5 0-.7.1-.7.1-1.4.1-2.4.1h-6.3c-1 0-3.4 0-5.1.3-2.8.4-4.1 1-5.4 3-.8 1.1-1.6 2.8-2.5 5.5-1.4 3.9-5 13.9-5.8 16.2-.1-.1-12.3-.1-12.3-.1zM165.3 59.1c-3.9 0-7.5-.1-9.4-.2-7.3-.4-11.6-1.7-13.3-3.9-1-1.4-1.2-3.2-.5-5.8.9-3.8 2.3-7.8 3.7-10.6 3.5-7.1 8-9.1 20.8-9.4h5.4c4.3 0 9.1 0 11.9.1 7.3.2 11.3 1.3 13 3.5 1 1.3 1.3 3.2.7 5.7-.7 3-2.5 8.4-4.2 11.8-2.3 4.5-5.5 8.3-20.3 8.8h-7.8m6.6-25.8h-2.5c-7 .2-9.9 1.5-12 5.5-1.2 2.2-2.7 6.7-3.3 9.3-.4 1.8-.5 3.2.3 4.3 1 1.3 3.1 1.8 7.8 2.1 1 0 2.7.1 4.5.1h3.8c7.2-.3 9.9-1.4 11.9-5.1 1.6-3 3.1-7.4 3.8-10 .4-1.6.2-2.9-.5-3.8-1.1-1.5-3.5-2.1-8.1-2.2-1.7-.2-3.8-.2-5.7-.2M103.6 58.6c-10.6 0-14-1.2-14-4.8 0-.6.1-1.3.3-2.3.2-.8 6.2-17.5 8-22.1H110l-6.2 17.2c-.7 1.8-1.1 3.3-1.1 4.3 0 .7.2 1.3.6 1.7 1 1 3 1.3 8 1.3h24.8c-.4 1.2-1.1 3-1.5 3.7v.1c-.4.8-.4.8-2.2.8l-5.7.1h-23.1zM60.9 58.5l10.5-29.1h12.2L73.1 58.5zM.1 58.5l10.6-29.1h29.9c3.8 0 6.5.1 9.5.4 2.7.2 4.8 1.2 6.1 2.8 1 1.3 1.4 3 1 4.9-.1.8-.4 1.9-.9 3-2.1 4.2-5.4 6.1-11.6 6.5-.5 0-1.2 0-2.2.1H30.6c-1.7 0-2.4-.2-3.5-1-1.5-1.2-2.7-2.2-3.7-3.2h12.3c1.6 0 3.4-.1 4.3-.1 2.8-.1 4.8-1.1 5.9-3 .5-.7.6-1 .7-1.6.3-1.1.3-2-.2-2.6-.5-.7-1.4-1.1-2.7-1.3-.9-.1-2.9-.1-5.8-.1H21.3l-8.9 24.5c-.1-.2-12.3-.2-12.3-.2zM261 12.7h-98c-.7 0-1.2-.5-1.2-1.2s.5-1.2 1.2-1.2h98c.7 0 1.2.5 1.2 1.2s-.5 1.2-1.2 1.2zM111.6 6.3c-.1.2-.1.4-.1.5 0 .5.4.8.8.8.3 0 .7-.2.9-.7.4-1 1.2-1.5 2.2-1.5 1.3 0 2.3.9 2.3 2.2 0 1.1-.6 1.9-1.4 2.7l-4.6 4.7c-.4.4-.6.8-.6 1.1 0 .3.1.9 1.2.9h6.6c.7 0 .9-.5.9-.8s-.1-.8-.9-.8h-5.5l4.1-4c1.1-1.1 2.1-2.2 2.1-3.8 0-2.4-1.9-3.6-4-3.6-2-.1-3.4.9-4 2.3zm18.9 4.3c0-3.7-1.3-6.7-4.3-6.7s-4.4 3-4.4 6.7 1.3 6.7 4.4 6.7c3 0 4.3-2.9 4.3-6.7zm-1.8 0v.4c-.1 2.1-.6 4.8-2.6 4.8-2.1 0-2.6-3.1-2.6-5.2v-.4c.1-2.1.6-4.9 2.6-4.9 2.1.1 2.6 3.2 2.6 5.3zm4.3-4.3c-.1.2-.1.4-.1.5 0 .5.4.8.8.8.3 0 .7-.2.9-.7.4-1 1.2-1.5 2.2-1.5 1.3 0 2.3.9 2.3 2.2 0 1.1-.6 1.9-1.4 2.7L133 15c-.4.4-.6.8-.6 1.1 0 .3.1.9 1.2.9h6.6c.7 0 .9-.5.9-.8s-.1-.8-.9-.8h-5.5l4.1-4c1.1-1.1 2.1-2.2 2.1-3.8 0-2.4-1.9-3.6-4-3.6-1.9-.1-3.3.9-3.9 2.3zm14.3 9.9V6.4L145.4 8c-.2.2-.4.2-.6.2-.4 0-.8-.3-.8-.8 0-.2.1-.5.4-.7l2.7-2.2c.4-.3.7-.4.9-.4.3 0 1 .1 1 1.1v11c0 .8-.6 1-.9 1s-.8-.2-.8-1zM100 12.7H1c-.7 0-1.2-.5-1.2-1.2s.5-1.2 1.2-1.2h99c.7 0 1.2.5 1.2 1.2s-.5 1.2-1.2 1.2z"/></svg>