<svg xmlns="http://www.w3.org/2000/svg" viewBox="0 0 387 68" aria-hidden="true" fill="#fff"><path d="M32.5 29.4l-3.1.1-1.5.1-1.5.1-2.2.2-2.2.3-1 .1-1.1.2-1.5.3-1.4.3-1.4.5-.9.3-.8.4-1 .6-1 .6-.9.7-1 .8-.5.5-.5.6-.5.6-.5.7-.7 1.1-.7 1.1-.7 1.3-.7 1.3-.8 1.8-.8 1.8-.7 1.8-.6 1.9-.4 1.4-.4 1.4-.1.7-.1.7-.1 1v1l.1 1 .1.6.1.6.2.8.3.7.4.7.4.6.5.6.5.5.6.5.6.4.5.3.5.3.6.3.6.3.7.3.7.2 1.4.4 1.4.3 1.4.2 1.3.2 1.3.1 1.6.1 1.6.1h5.6l3.1-.1 3.1-.2 2.1-.2 2.2-.2 1.6-.2 1.6-.3 1.7-.4.8-.2.8-.3 1.2-.4 1.2-.5 1.2-.6 1.1-.7 1.1-.8 1-.9 1-.9.7-.8.7-.9.6-.9.5-.7.4-.7.7-1.3.6-1.3.7-1.7.7-1.7.6-1.8.6-1.8.4-1.4.3-1.4.2-1.3.1-.6v-1.5l-.1-.9-.1-.9-.1-.6-.2-.6-.2-.6-.3-.6-.3-.5-.3-.4-.3-.4-.3-.4-.4-.3-.4-.4-.5-.3-.5-.3-.5-.3-1-.5-1.2-.4-1.2-.4-1.2-.3-.9-.2-.9.2-1.9-.3-1.3-.1-1.3-.1-2.7-.1h-6.2zM22.1 58.1l-1.2-.1-.9-.1-.9-.2-.8-.2-.8-.3-.4-.2-.3-.2-.4-.3-.4-.4-.3-.5-.1-.4-.2-.2v-1.6l.2-.8.1-.3.3-1.1.4-1.1.7-2 .8-1.9.7-1.5.8-1.5.6-1.1.5-.8.5-.7.7-.7.7-.6.8-.5.2-.1.7-.3.9-.4 1-.3.7-.1 1.2-.2 1.2-.1 1.3-.1 2.3-.1h2.2l1.3.1h.6l1 .1.4.1.8.1.6.1.6.2.4.2.4.2.4.3.3.3.2.3.2.3.1.4.1.4v1l-.1.6-.1.6-.1.3-.2.8-.3 1.2-.5 1.7-.6 1.7-.3.7-.5 1.2-.6 1.2-.5.9-.6.9-.7.9-.4.4-.1.7-.4.4-.4.4-.7.5-.7.4-.8.3-.9.3-.9.2-1.2.2-1.2.2-1.5.1-1.4.1h-4.5zM112.3 38.7l-.1-.5-.1-.5-.1-.5-.2-.5-.3-.7-.4-.7-.4-.7-.5-.6-.6-.6-.7-.5-.7-.5-.5-.3-.5-.3-.6-.3-.6-.2-1.2-.4-1.2-.3-1.1-.2-.9-.1-1.8-.2-2.5-.1-1.9-.1h-8.9l-17.8.1c-4.2 11.5-8.6 22.9-13.1 34.3l17.7-.1h5.9l4.1-.1 2-.1 1.5-.1 1.5-.1 1.9-.2 1.9-.2 1.4-.2 1.4-.3 1.6-.4 1.6-.5.8-.3.8-.3 1.1-.5 1.1-.6 1-.7 1-.7.9-.8.8-.8.7-.8.7-.9.6-.9.4-.7.4-.7.6-1.3.6-1.3.7-1.7.6-1.7.5-1.6.4-1.6.2-.8.1-.8.1-.8.1-.8v-2.2zm-13.7 2.9l-.1.9-.2.9-.3 1-.3 1-.4 1-.4 1-.6 1.2-.4.8-.4.8-.5.7-.5.7-.5.7-.6.7-.6.6-.6.5-.5.3-.5.3-.4.2-.5.2-.6.2-.6.2-1.1.2-1.4.2-.7.1-1.9.1-1.3.1-4 .1-5.2.1c2.4-6.2 4.8-12.5 7.1-18.7H91.3l1.4.1 1 .1.8.1.8.1.6.1.6.2.5.2.4.3.4.3.3.3.2.3.2.3.1.4.1.5v.4l-.1.2zM137.2 63.9L122 64c1.7-4.2 3.3-8.4 4.9-12.6-4.3-7.2-8.7-14.4-13.1-21.6 5.1 0 10.2 0 15.3-.1 2.9 4.7 5.7 9.4 8.6 14.1l15.8-11.5.9-.7.6-.5.7-.4.7-.4.7-.3.6-.2.6-.1.6-.1h13.7l-13.2 9.6-13.2 9.6-1.2.9-1.3.9-.6.4-.3.2-.5.5-.4.5-.4.6-.3.6-.3.7-.7 1.8-1.7 4.5-1.3 3.5-.1-.2-14.9.1-.2.2M221.3 29.8l-.3.8-.8 1.7-.3.8-.4.9-.3.7-.2.3-.4.5-.2.3-.3.2-.2.2-.3.1-.5.2-.5.2-.6.1-.6.1-1 .1h-25.5l-.5.1-.7.1-.6.1-.5.2-.6.2-.2.2-.2.2-.2.2-.2.3v.2l-.1.1v.2l.1.1v.1l.2.1.4.2.7.2.9.3 1.9.4 3.9 1 8 1.8 2.4.6 2.5.6 1.3.3 1.2.4.6.3.9.4.5.2.4.3.4.3.4.3.5.4.4.5.2.4.2.4.2.4.1.3.2.7v1.5l-.1.7-.2.7-.1.5-.2.5-.5 1.1-.4.6-.6 1.1-.8 1-.8 1-.9.9-1 .8-1 .7-.9.5-1 .5-1.1.4-1.1.3-1.2.3-1.4.2-1.4.1-2.2.1-2.5.1h-1.4l-3.5.1h-7l-11.6.1H165l-5-.1 1-2.1 1.2-2.4.6-1.1.2-.5.3-.4.1-.2.2-.2.4-.2.3-.2.4-.2.4-.1H190.7l1.5-.1h.7l.6-.1.6-.1.6-.2.5-.2.4-.3.4-.3.3-.3.2-.3.1-.3.1-.3v-.4l-.1-.2-.2-.2-.2-.1-.3-.1-.4-.1-.5-.1-1.5-.3-2.3-.5-8.5-2-4.1-.9-1.3-.3-1.6-.4-.7-.3-1.2-.4-.8-.3-.8-.5-.7-.3-.6-.5-.5-.4-.4-.4-.4-.6-.3-.6-.3-.7-.1-.6v-1.2l.1-.4.1-.5.2-.8.4-1 .5-1 .4-.8.6-.9.6-.7.7-.7.7-.7.9-.7.9-.6.9-.5 1-.5.7-.3.7-.2.7-.2.7-.2 1.5-.3 1.3-.2 1.4-.1 1.4-.1 2.5-.1 2-.1h24zM214.3 63.8l1-2.2 1-2.1.7-1.3.2-.5.3-.4.3-.4.4-.3.4-.2.5-.2h.7l.5-.1h3.1l10.1.1h12l.9-.1h.9l.8-.1.3-.1.4-.1.3-.2.4-.2.4-.2.3-.3.3-.3.2-.4.1-.3V53.3l-.1-.2-.1-.1-.3-.2-.2-.1-.3-.1-.8-.1-3.5-.8-8.8-2-1.1-.3-3.5-.8-.7-.2-1.6-.4-.8-.3-1.2-.4-.9-.4-.9-.5-.6-.4-.5-.4-.3-.3-.3-.3-.4-.4-.3-.5-.2-.5-.1-.4-.1-.5-.1-.6v-.6l.1-.7.1-.4.1-.5.3-.9.3-.6.3-.7.5-.9.6-.9.5-.7.7-.7.7-.6.7-.6.5-.4.5-.3 1.1-.6 1.1-.5.9-.4.8-.2 1.2-.3 1.3-.3 1.1-.2 1.2-.1 1.3-.1 1.4-.1h35l-.4.9-.7 1.7-.3.8-.4.8-.3.8-.2.3-.4.5-.2.2-.3.2-.2.2-.3.2-.5.2-.5.2-.6.1-.5.1h-26.5l-.9.1-.5.1-.5.1-.5.2-.4.2-.3.2-.3.3-.2.2-.1.3-.1.2V39.2l.1.1.1.1.2.1.6.2.4.1.6.2 1.1.3 1.5.4 3.5.8 8.3 1.9 3.2.8 1.3.3 1.3.4 1.2.4.7.2.9.4.4.3.4.2.4.3.4.3.5.5.4.5.3.4.2.4.1.3.1.4.2.7v1.5l-.1.7-.2.6-.2.7-.3.7-.3.7-.3.7-.4.6-.6.9-.6.9-.7.7-.8.8-.8.6-.9.7-1 .6-.5.3-.6.3-.6.2-.7.2-.6.2-.6.2-.9.2-.9.1-1 .1-.9.1-1.6.1-1.5.1h-5.7l-11.5.1H220.3zM326.9 29.9c-14.8-.1-29.5-.1-44.3-.1l-2 5.3-5.6 15-.8 2.1-.4 1.1-.4 1.1-.2.5-.2.8-.2.8-.1.9v1l.1.4.1.4.2.6.3.6.3.4.3.4.4.4.3.2.3.2.7.4.7.3.8.3.9.2 1 .2 1.3.2 1.3.1 1.3.1 1.9.1H314.9l.4-.1.3-.1.2-.2.2-.2.2-.3.2-.3.3-.6.3-.7.3-.7.5-1.2 1.3-3.2-19.6-.1H291.7l-.8-.1-.6-.1-.6-.1-.5-.1-.2-.1-.2-.1-.2-.1-.1-.1v-.7l.1-.5.3-1 .2-.6.3-.8.6-1.6c9.6 0 19.2.1 28.9.1 1-2.5 1.9-4.9 2.8-7.4-9.6 0-19.3-.1-28.9-.1.9-2.5 1.6-4.4 2-5.5h26.8l.5-.1.4-.1.4-.2.5-.3.5-.4.4-.5.4-.5.3-.6.3-.6.6-1.2 1-2.9M386.9 30.2L373.4 40l-13.6 9.8-1 .7-.8.6-.4.3-.3.3-.3.3-.3.4-.3.4-.3.6-.3.6-.2.5-.4 1.1-.9 2.4-2.3 6.1-15.2-.1c1.6-4.2 3.2-8.3 4.8-12.5L337 63.8l-.2.2 4.8-12.5c-4.3-7.2-8.7-14.4-13.1-21.6l15.2.1c2.9 4.7 5.7 9.4 8.5 14.1l16.5-12 .7-.5.6-.4.3-.2.5-.3.6-.2.8-.2.8-.1h13.9zM228.5 12.7c-.7 0-1.2-.5-1.2-1.2s.5-1.2 1.2-1.2l157.2-.1c.7 0 1.2.5 1.2 1.2s-.5 1.2-1.2 1.2l-132.2.1zm-227 0c-.7 0-1.2-.5-1.2-1.2s.5-1.2 1.2-1.2l157.9-.1c.7 0 1.2.5 1.2 1.2s-.5 1.2-1.2 1.2l-157.9.1zM181.256 17c.738 0 .864-.54.864-.792s-.126-.774-.864-.774h-5.472l4.086-4.032c1.116-1.098 2.052-2.214 2.052-3.852 0-2.376-1.908-3.618-4.032-3.618-1.782 0-3.204.972-3.816 2.358-.072.162-.126.36-.126.54 0 .522.396.81.828.81.342 0 .666-.216.882-.702.414-.972 1.188-1.548 2.214-1.548 1.26 0 2.268.864 2.268 2.196 0 1.08-.63 1.908-1.404 2.7l-4.644 4.716c-.45.45-.576.756-.576 1.062 0 .306.144.936 1.17.936h6.57zm7.398.324c3.024 0 4.338-2.97 4.338-6.696 0-3.708-1.314-6.696-4.338-6.696-3.042 0-4.356 2.988-4.356 6.696 0 3.726 1.314 6.696 4.356 6.696zm0-1.476c-2.106 0-2.574-3.06-2.574-5.22 0-2.142.468-5.238 2.574-5.238 2.07 0 2.556 3.096 2.556 5.238 0 2.16-.486 5.22-2.556 5.22zM202.676 17c.738 0 .864-.54.864-.792s-.126-.774-.864-.774h-5.472l4.086-4.032c1.116-1.098 2.052-2.214 2.052-3.852 0-2.376-1.908-3.618-4.032-3.618-1.782 0-3.204.972-3.816 2.358-.072.162-.126.36-.126.54 0 .522.396.81.828.81.342 0 .666-.216.882-.702.414-.972 1.188-1.548 2.214-1.548 1.26 0 2.268.864 2.268 2.196 0 1.08-.63 1.908-1.404 2.7l-4.644 4.716c-.45.45-.576.756-.576 1.062 0 .306.144.936 1.17.936h6.57zm10.71 0c.738 0 .864-.54.864-.792s-.126-.774-.864-.774h-5.472L212 11.402c1.116-1.098 2.052-2.214 2.052-3.852 0-2.376-1.908-3.618-4.032-3.618-1.782 0-3.204.972-3.816 2.358-.072.162-.126.36-.126.54 0 .522.396.81.828.81.342 0 .666-.216.882-.702.414-.972 1.188-1.548 2.214-1.548 1.26 0 2.268.864 2.268 2.196 0 1.08-.63 1.908-1.404 2.7l-4.644 4.716c-.45.45-.576.756-.576 1.062 0 .306.144.936 1.17.936h6.57z"/></svg>