<svg xmlns="http://www.w3.org/2000/svg" viewBox="0 0 262 84" aria-hidden="true" fill="#fff"><path d="M19.2 29.6c-10.8.8-14.9 4.6-17.6 10.9-2.1 4.9-2.1 9.4-.4 12.4 1.4 2.6 5 4.6 9.5 5.1 4 .4 6.3.5 11.8.5h24.8c2.4 0 2.4 0 3-1.3.5-1.1 1.8-4.6 1.8-4.6H29.9c-2.5 0-5.2 0-9-.4-2.6-.3-4.2-1.1-5.1-2.7-1.2-2.1 0-6.1 1-8.1 2.2-4.8 5-5.9 11-6.3 3.6-.1 6.2-.1 9.4-.1h15.3c2.6 0 4.1-1.5 4.8-3.1.5-1.1 1.1-2.5 1.1-2.5H30.9c-3.7-.1-8.3 0-11.7.2M65 57h14.6L90 28H75.4zM130.5 48.4c-2.3 2.1-2.6 2.1-5.9 2.1h-2L117.8 28H103l6.4 29h15.7c8.5 0 8.4 0 13.9-5 11-9.8 27-24 27-24h-13.2S132 47 130.5 48.4M169 57h14.6L194 28h-14.6zM234.3 29.3c-3.7 0-8.3.1-11.7.3-10.8.8-14.9 4.6-17.6 10.9-2.1 4.9-2.1 9.4-.4 12.4 1.4 2.6 5 4.6 9.5 5.1 4 .4 6.3.5 11.8.5l15.6-.1h9.3c2.4 0 2.4 0 3-1.3.5-1.1 1.8-4.6 1.8-4.6h-22.2c-2.5 0-5.2 0-9-.4-2.6-.3-4.2-1.1-5.1-2.7-1.2-2.1 0-6.1 1-8.1 2.2-4.8 5-5.9 11-6.3 3.6-.2 6.2-.2 9.3-.2h15.3c2.6 0 4.1-1.5 4.8-3.1.5-1.1 1.1-2.5 1.1-2.5l-27.5.1zM118.8 17c.7 0 .9-.5.9-.8 0-.3-.1-.8-.9-.8h-5.5l4.1-4c1.1-1.1 2.1-2.2 2.1-3.9 0-2.4-1.9-3.6-4-3.6-1.8 0-3.2 1-3.8 2.4-.1.2-.1.4-.1.5 0 .5.4.8.8.8.3 0 .7-.2.9-.7.4-1 1.2-1.5 2.2-1.5 1.3 0 2.3.9 2.3 2.2 0 1.1-.6 1.9-1.4 2.7l-4.6 4.7c-.5.5-.6.8-.6 1.1 0 .3.1.9 1.2.9h6.4zm7.4.3c3 0 4.3-3 4.3-6.7s-1.3-6.7-4.3-6.7-4.4 3-4.4 6.7c0 3.8 1.3 6.7 4.4 6.7zm0-1.5c-2.1 0-2.6-3.1-2.6-5.2s.5-5.2 2.6-5.2 2.6 3.1 2.6 5.2c-.1 2.2-.6 5.2-2.6 5.2zm14 1.2c.7 0 .9-.5.9-.8 0-.3-.1-.8-.9-.8h-5.5l4.1-4c1.1-1.1 2.1-2.2 2.1-3.9 0-2.4-1.9-3.6-4-3.6-1.8 0-3.2 1-3.8 2.4-.1.2-.1.4-.1.5 0 .5.4.8.8.8.3 0 .7-.2.9-.7.4-1 1.2-1.5 2.2-1.5 1.3 0 2.3.9 2.3 2.2 0 1.1-.6 1.9-1.4 2.7L133 15c-.4.5-.6.8-.6 1.1 0 .3.1.9 1.2.9h6.6zm8 .1c.3 0 .9-.1.9-1v-11c0-1-.6-1.1-1-1.1-.3 0-.5.1-.9.4l-2.7 2.2c-.4.4-.5.6-.5.8 0 .4.3.8.8.8.2 0 .4-.1.6-.2l1.9-1.6v9.8c0 .8.6.9.9.9zM100 12.7H1c-.7 0-1.2-.5-1.2-1.2s.5-1.2 1.2-1.2h99c.7 0 1.2.5 1.2 1.2s-.5 1.2-1.2 1.2zM261 12.7h-98c-.7 0-1.2-.5-1.2-1.2s.5-1.2 1.2-1.2h98c.7 0 1.2.5 1.2 1.2s-.5 1.2-1.2 1.2zM118.6 72.5h-4l-6.3 3.6-2-3.5h-19L86 74v.1H91.2v.1l-4.5 6v.1h5.5l3.8-5c.7-.9.9-1.2 2.6-1.2h3.2l.2-.2 2.3 3.4v.1l-2.1 2.8v.1h5.6l1.9-2.6.2-.1 8.8-5-.1-.1M123.8 75.9c-.1 0-.1 0 0 0l-.1-.1 1.4-1.9h2.4c.2 0 .4 0 .5.2.1.2-.1.5-.7 1l-.1.1c-.3.3-.8.7-2.2.7h-1.2zm2.3-3.4h-5.5l-5.8 7.6v.1h5.5l2-2.6h1.4c4.2 0 6.6-.1 7.7-1.1.6-.5 1-1.2 1.4-1.9.4-.6.7-1.2.4-1.6-.2-.3-.8-.5-1.7-.5-1.7.1-3.4 0-5.4 0zM148.5 72.6h-12.3l-3.1 4c-.1.1-.2.3-.3.5-.1.1-.2.2-.2.3-.7.9-.9 1.5-.6 2 .3.5 1.1.8 2.4.9.4 0 1.7.1 2.7.1h6.4c1.1 0 1.8-.2 2.3-.7l.9-.9v-.1h-8.1c-.6 0-1-.1-1.1-.2-.1-.1 0-.4.3-.8l.5-.7h7.2c.3-.3.8-1 1.1-1.4v-.1h-7.1-.1v-.1l1-1.2h6.8c.2-.3.7-.9 1-1.2.4-.3.4-.4.3-.4.1 0 0 0 0 0"/><path fill="#ce202f" d="M176 72.4c.4-.6.7-1.2.4-1.7-.2-.4-.8-.5-1.8-.6-4.9-.2-19.2-.1-19.2-.1.1.2.2.4.3.5.3.5.4.8.4 1.1-.1.3-.3.6-.7 1.1-.3.3-4.4 5.9-5.8 7.6h6.2c.5-.7 5.4-7.1 6.8-8.9h8c.1 0 .3 0 .4.1.1.3-.4 1-1 1.5l-.1.1c-.3.3-.8.7-2.2.7l-5.7.1-1.1 1.5c1.4 1 6.5 5.1 6.9 5.4.5.4 1.2.6 2.1.6 0 0 3.5 0 5.4-.1-.9-.6-6.5-4.7-8.2-5.9 3.9 0 6.5-.4 7.6-1.4.7-.5 1-1 1.3-1.6"/><path d="M73.5 76.7H1.3c-.7 0-1.2-.5-1.2-1.2s.5-1.2 1.2-1.2h72.2c.7 0 1.2.5 1.2 1.2s-.5 1.2-1.2 1.2zM261.1 76.7h-72.6c-.7 0-1.2-.5-1.2-1.2s.5-1.2 1.2-1.2h72.6c.7 0 1.2.5 1.2 1.2s-.5 1.2-1.2 1.2z"/></svg>