<svg xmlns="http://www.w3.org/2000/svg" viewBox="0 0 351 72" aria-hidden="true" fill="#fff"><path d="M276.9 48.6c3.2-.5 5.4-1.2 7.2-2.2 1.7-.9 3.1-2.1 4.3-3.8.8-1 1.5-2.5 1.8-3.8 1.5-5.7-1.4-7.4-8.1-7.7-1.2-.1-2.1-.1-4.4-.1h-32.2l-10.7 29.4h13.8l8.8-24.3h14.4c.8 0 1.7 0 3 .1 2.4.2 2.5 1 2.2 2.6-.2.9-1 2-1.7 2.7-1 .9-2.7 1.5-5.2 1.7-1.4.1-2.2.2-3.2.2h-9.7s15.2 15.6 15.3 15.7c1.1 1 1.6 1.2 3.9 1.3H288.6s-11.8-11.8-11.7-11.8M48.7 60.4h14.1L63 31H46.7c-.6 0-3.1 0-4.9.2-3 .3-4.6 1.1-7.2 2.9-.6.4-2.4 1.7-3.1 2.2L0 60.4h12.9l8.7-6.7h27.1v6.7zM29 48l.1-.1 11-8.5c1.1-.9 1.8-1.4 2.4-1.8 1.4-1 2.2-1.2 4-1.2H49l-.1 11.5v.1H29zM215.1 49.9c-1.7 3.1-3.1 4.2-7 4.9-2.4.4-4.2.5-6.6.5-2.3 0-4.1-.1-6.1-.5-3.4-.6-3.9-1.6-3.1-4.9.3-1.4.9-3.1 1.5-4.7.7-1.7 1.4-3.4 2.2-4.8 1.8-3.2 2.8-4.2 6.9-4.8 2.3-.4 4.2-.4 6.6-.4 2.4 0 4.2.1 6.1.4 3.3.5 3.9 1.4 3.1 5-.3 1.4-.9 3-1.5 4.7-.6 1.5-1.4 3.3-2.1 4.6m10.3-18.8c-3.6-.7-10.4-.9-14.6-.9-4.3 0-11.1.3-15.2.9-7.3 1.2-9.8 2.8-12.6 7.6-1.1 2-2.1 4.2-2.9 6.4-.8 2.2-1.3 4.4-1.6 6.3-.7 4.8.4 7.2 6.9 8.4 3.6.7 9.9 1 14.5 1s11.1-.4 15.2-1c7.5-1.2 9.9-2.7 12.7-7.6 1.1-2 2.1-4.1 2.8-6.3.8-2.2 1.4-4.4 1.7-6.4.8-5.1-.5-7.3-6.9-8.4M100.8 36.1H116.6c2.6-.1 3.3-.5 4.4-2.5.3-.5.9-1.7 1.3-2.6H98.1c-.7 0-2.9 0-4.5.1-3.3.1-6.6.3-9.2.8-4.9 1-6.9 2.8-9.2 6.9-1.2 2.1-2.2 4.5-3 6.9-.8 2.4-1.4 4.6-1.5 6.7-.1 2.9 1.2 5.3 4.9 6.7 2.9 1.1 6.5 1.4 11.3 1.4h25.8c1.1 0 1.8-.2 2.3-1.2.2-.4.6-1.4.8-1.8.4-1 .9-2.5.9-2.5H93.1c-2.9 0-4.5 0-6.2-.5-1.8-.5-2.4-1.3-2.3-2.9.1-2.6 2.4-9.4 4-11.7 1.2-1.8 2.2-2.7 4.6-3.2 2.3-.5 4.9-.6 7.6-.6M154.1 36.1H169.9c2.6-.1 3.3-.5 4.4-2.5.3-.5.9-1.7 1.3-2.6h-24.3c-.7 0-2.9 0-4.5.1-3.3.1-6.6.3-9.2.8-4.9 1-6.9 2.8-9.2 6.9-1.2 2.1-2.2 4.5-3 6.9-.8 2.4-1.4 4.6-1.5 6.7-.1 2.9 1.2 5.3 4.9 6.7 2.9 1.1 6.5 1.4 11.3 1.4h25.8c1.1 0 1.8-.2 2.3-1.2.2-.4.6-1.4.8-1.8.4-1 .9-2.5.9-2.5h-23.6c-2.9 0-4.4 0-6.2-.5-1.8-.5-2.4-1.3-2.3-2.9.1-2.6 2.4-9.4 4-11.7 1.2-1.8 2.2-2.7 4.6-3.2 2.3-.5 5-.6 7.7-.6M333.3 51.1c-1.3 1.8-2.7 2.8-5.2 3.2-2.4.4-4.4.5-7.2.5h-10.2l6.8-18.8h13c2.2 0 3.8.1 5.2.4 1.5.3 2 1.3 1.9 3-.1 2.7-2.6 9.4-4.3 11.7m13.4-19.2c-2.9-.8-7.3-.9-9.5-.9h-31.6l-10.7 29.4h26.9c1.3 0 2.4 0 4-.1 3.6-.1 7-.3 9.8-.8 5.2-1 8.3-2.8 10.7-6.8 1.3-2.1 2.4-4.7 3.3-7.1.6-1.8 1.1-3.8 1.4-5.4.8-4.9-.4-7.2-4.3-8.3M235.5 12.7c-.7 0-1.2-.5-1.2-1.2s.5-1.2 1.2-1.2l114.2-.1c.7 0 1.2.5 1.2 1.2s-.5 1.2-1.2 1.2l-114.2.1zm-118.9-.1H1.2c-.7 0-1.2-.5-1.2-1.2s.5-1.2 1.2-1.2h115.4c.7 0 1.2.5 1.2 1.2s-.6 1.2-1.2 1.2zM135.7 17.1c.5 0 .9-.4.9-.9 0-.2 0-.4-.2-.6l-3-4.5c1.8-.3 3.1-1.5 3.1-3.4 0-2.6-2.1-3.5-4.5-3.5h-3c-.7 0-1.1.3-1.1 1.1v10.8c0 .8.6 1 .9 1 .3 0 .9-.2.9-1v-4.8h1.9l3.3 5.3c.2.4.5.5.8.5zm-4-7.3h-2.1v-4h2.2c1.5 0 2.9.5 2.9 2s-1.3 2-3 2zm11.1 7.4c1.3 0 2.4-.4 3.2-1.3.2-.2.3-.5.3-.6 0-.4-.3-.7-.7-.7-.2 0-.4.1-.6.3-.5.5-1.2.9-2.2.9-1.5 0-2.7-1.1-2.8-2.6h5.9c.6 0 .9-.3.9-.9v-.6c-.3-2.3-1.9-3.6-4-3.6-2.5 0-4.4 1.9-4.4 4.5-.1 2.8 1.8 4.6 4.4 4.6zm2.3-5.2H140c.1-1.3 1.2-2.4 2.7-2.4 1.5 0 2.3 1 2.4 2.4zm7.8 5.2c1.2 0 2.4-.6 3.1-1.6v.6c0 .8.6.9.8.9.3 0 .8-.1.8-.9v-12c0-.8-.6-.9-.8-.9-.3 0-.8.1-.8.9v5.6c-.6-.8-1.7-1.5-3-1.5-2.6 0-4.3 2-4.3 4.5-.1 2.4 1.5 4.4 4.2 4.4zm.3-1.4c-1.9 0-2.8-1.5-2.8-3.1s1-3.1 2.8-3.1c1.7 0 2.9 1.5 2.9 3.1s-1.2 3.1-2.9 3.1zm11.3 1.4c1.3 0 2.4-.4 3.2-1.3.2-.2.3-.5.3-.6 0-.4-.3-.7-.7-.7-.2 0-.4.1-.6.3-.5.5-1.2.9-2.2.9-1.5 0-2.7-1.1-2.8-2.6h5.9c.6 0 .9-.3.9-.9v-.6c-.3-2.3-1.9-3.6-4.1-3.6-2.5 0-4.4 1.9-4.4 4.5 0 2.8 1.9 4.6 4.5 4.6zm2.3-5.2h-5.1c.1-1.3 1.2-2.4 2.7-2.4 1.6 0 2.4 1 2.4 2.4zm6.5 5.2c1.7 0 3.4-.7 3.4-2.8 0-1.5-1.2-2.2-2.9-2.5-1.3-.3-1.9-.6-1.9-1.3 0-.8.8-1.1 1.6-1.1.6 0 1.1.2 1.6.6.2.2.4.3.5.3.4 0 .7-.3.7-.7 0-.2-.1-.4-.4-.7-.6-.5-1.5-.8-2.5-.8-1.6 0-3.2.8-3.2 2.6 0 1.6 1.3 2.1 2.5 2.4 1.5.3 2.2.6 2.2 1.4 0 .9-.8 1.2-1.7 1.2-.7 0-1.3-.3-1.8-.8-.2-.2-.4-.3-.6-.3-.4 0-.7.3-.7.8 0 .2.1.4.4.7.7.7 1.8 1 2.8 1zm6.4-10.7c.6 0 1.1-.5 1.1-1.1 0-.6-.5-1.1-1.1-1.1s-1.1.5-1.1 1.1c0 .6.5 1.1 1.1 1.1zm0 10.6c.3 0 .8-.1.8-.9V9.3c0-.8-.6-.9-.8-.9-.3 0-.8.1-.8.9v6.9c0 .8.6.9.8.9zm7.6 4.2c3.5 0 4.7-2.3 4.7-4.8V9.2c0-.8-.6-.9-.8-.9-.3 0-.8.1-.8.9v.6c-.6-1.1-1.9-1.6-3.1-1.6-2.6 0-4.3 2-4.3 4.4s1.7 4.4 4.3 4.4c1.2 0 2.4-.5 3-1.5v1.1c0 1.8-.8 3.1-3 3.1-.9 0-1.8-.3-2.6-1-.3-.2-.4-.3-.6-.3-.5 0-.8.4-.8.8 0 .2.1.5.4.7.9 1 2.3 1.4 3.6 1.4zm.3-5.7c-1.8 0-2.8-1.4-2.8-3s1-3 2.8-3c1.7 0 2.9 1.4 2.9 3 0 1.7-1.2 3-2.9 3zm14.1 1.5c.3 0 .8-.1.8-.9v-4.5c0-1.9-1-3.5-3.2-3.5-1.2 0-2.4.7-2.8 1.6h-.1v-.6c0-.8-.5-.9-.8-.9-.3 0-.8.1-.8.9v7c0 .8.6.9.8.9.3 0 .8-.1.8-.9v-3.7c0-1.7 1-2.8 2.3-2.8 1.6 0 1.9 1.2 1.9 2.6v3.9c.2.8.8.9 1.1.9zm7.6.1c1.4 0 2.4-.4 3.2-1.3.2-.2.3-.5.3-.6 0-.4-.3-.7-.7-.7-.2 0-.4.1-.6.3-.5.5-1.2.9-2.2.9-1.5 0-2.7-1.1-2.8-2.6h5.9c.6 0 .9-.3.9-.9v-.6c-.3-2.3-1.9-3.6-4.1-3.6-2.5 0-4.4 1.9-4.4 4.5 0 2.8 1.9 4.6 4.5 4.6zm2.3-5.2h-5.1c.1-1.3 1.2-2.4 2.7-2.4 1.6 0 2.4 1 2.4 2.4zm7.8 5.2c1.2 0 2.4-.6 3.1-1.6v.6c0 .8.6.9.8.9.3 0 .8-.1.8-.9v-12c0-.8-.6-.9-.8-.9-.3 0-.8.1-.8.9v5.6c-.6-.8-1.7-1.5-3-1.5-2.6 0-4.3 2-4.3 4.5-.1 2.4 1.6 4.4 4.2 4.4zm.3-1.4c-1.9 0-2.8-1.5-2.8-3.1s1-3.1 2.8-3.1c1.7 0 2.9 1.5 2.9 3.1s-1.2 3.1-2.9 3.1z"/></svg>