<svg xmlns="http://www.w3.org/2000/svg" viewBox="0 0 351 94" aria-hidden="true" fill="#fff"><path d="M226.4 30l-11.3 31.3H228L239.4 30zM251.8 61.8c2.7-7.5 9.2-25.3 9.7-26.8h-16.9c.3-.9 1.7-4.7 1.7-4.7H293c-.8 1.4-1.4 3.3-2.9 4.1-1.1.7-3.5.6-4.9.5h-10l-9.7 26.8h-13.7zM70 61.8h-6.9c-2.2 0-4.4-.1-6.5-.8-1.7-.6-3.5-1.5-3.8-3.4-.3-1.8.3-3.6.9-5.3 2.6-7.3 8-22 8-22h13c-1.6 4.3-3.2 8.7-4.8 13-.9 2.4-1.7 4.8-2.6 7.2-.7 2.1-1.3 3.8-1.3 4.6 0 1.4 1.8 1.5 4 1.6h25.1c-1.3 1.3-2.7 2.6-4 3.9-.5.5-1.1 1.2-1.8 1.2H70M30.5 61.8c-4 0-8 0-12-.1-4.2-.1-8.6 0-12.5-1.7-2-.9-3.7-2-4.4-4.1-.8-2.1-.5-4.6 0-6.8C2 46.7 3 44.3 3.9 42c.8-2 1.9-3.9 3.2-5.5 1.2-1.5 2.7-2.9 4.4-3.8 1.9-1 4.1-1.4 6.2-1.7 4.1-.6 8.2-.6 12.4-.7 6.9-.1 13.8-.1 20.7 0h.3c-.5 1.3-1 2.7-2.1 3.7-1.5 1.2-3.7 1-5.5 1H32.2c-4.1 0-9.3-.3-12.3 3.1-1.4 1.6-2.5 3.4-3.4 5.3-1 2.2-1.9 4.4-2.4 6.7-.3 1.7-.5 3.8 1.1 4.9 1.3 1 3 1.2 4.6 1.3 2.1.2 6.2.2 13.3.2h12.1c-.4 1.2-.9 2.4-1.3 3.5-.4.9-.9 1.5-1.8 1.6-.6.1-1.2.1-1.8.1-3.4.1-6.6.1-9.8.1M95.5 61.8c6.8-6.9 13.5-13.9 20.4-20.7 2.7-2.7 5.3-5.5 8.2-7.9 1.6-1.4 3.4-2.2 5.5-2.6 1.4-.2 3.3-.3 5.9-.3h12.1s2.1 24.3 2.7 31.5H138l-.6-8.1h-22.6l-8 8.1H95.5zM137 48.4l-.8-12.8h-.5c-1.6 0-3-.1-4.3 1.1-3.7 3.4-11.2 11.5-11.5 11.8H137zM197.7 61.8c-1.5 0-2.7-.3-3.9-1.3-1.1-1-2.2-2.2-3.2-3.3-1.8-1.9-3.6-3.9-5.3-5.9-2.3-2.5-4.6-5-6.8-7.6 3.3 0 6.6.1 9.8-.1 2.1-.1 4.4-.4 6.3-1.5 1.6-1 2.7-2.9 3-4.8.3-2.4-2.3-2.2-3.9-2.2h-12.8c-.8 0-.9-.1-1 .3-2.9 8-5.8 16-8.7 23.9-.3.8-.9 2.5-.9 2.5h-13.1c2.7-7.3 11.4-31.5 11.4-31.5h21.5c3.7 0 7.5 0 11.2.1 2.6.1 6.2.1 8.1 2.2 1.3 1.5 1.1 3.7.6 5.4-.5 2.1-1.5 4-3 5.6-2.9 3-6.7 4.4-10.7 5.2 4.1 4.3 8.1 8.6 12.2 13h-10.8M305.1 61.8c1.3-3.7 2.7-7.3 4-11 .2-.5.2-.6.2-.7-.2-.4-.5-.8-.7-1.2-1.1-1.7-8.9-14.2-11.7-18.6h13.8s6.7 11.2 8.3 13.7c5.7-4.1 11.5-8.1 17.2-12.1 1.4-1 2.6-1.6 4.3-1.6 1.7-.1 8.6 0 10.4 0-6.3 4.5-24.9 17.6-27.9 19.8-.7.5-.7.7-1 1.5-.8 2.3-3.7 10.3-3.7 10.3h-13.2zM256.5 84.7c-.7 0-1.2-.5-1.2-1.2s.5-1.2 1.2-1.2l93.2-.1c.7 0 1.2.5 1.2 1.2s-.5 1.2-1.2 1.2l-93.2.1zm-161 0l-94.3-.1c-.7 0-1.2-.5-1.2-1.2s.5-1.2 1.2-1.2l94.3.1c.7 0 1.2.5 1.2 1.2s-.5 1.2-1.2 1.2zM107.8 89.1c.3 0 .9-.2.9-1v-4.7h2c2.6 0 4.6-1 4.6-3.6 0-2.5-1.8-3.5-4.6-3.5H108c-.7 0-1.1.3-1.1 1.1v10.8c0 .8.6.9.9.9zm2.8-7.2h-1.9v-4.1h1.9c1.7 0 2.9.5 2.9 2 .1 1.5-1.2 2.1-2.9 2.1zm13.8 7.1c.8 0 .9-.5.9-.8s-.1-.8-.9-.8h-5V77.1c0-.8-.6-1-.9-1-.3 0-.9.2-.9 1v10.8c0 .7.3 1.1 1.1 1.1h5.7zm7.3.3c3.4 0 4.9-2.4 4.9-5v-7.2c0-.8-.6-1-.9-1-.3 0-.9.2-.9 1v7.1c0 1.7-.8 3.5-3.2 3.5-2.4 0-3.2-1.8-3.2-3.5v-7.1c0-.8-.6-1-.9-1-.3 0-.9.2-.9 1v7.2c.1 2.6 1.7 5 5.1 5zm14.1 0c1.4 0 2.7-.3 3.9-.7.6-.3.9-.5.9-1.2V83c0-.7-.3-1-1-1h-2.8c-.7 0-.8.5-.8.7 0 .3.1.8.8.8h2.1V87c-.7.4-1.8.6-3 .6-3 0-4.9-2.3-4.9-5.1s1.9-5.1 4.9-5.1c1.2 0 2.2.4 2.9.9.3.2.5.3.7.3.5 0 .8-.4.8-.8 0-.2-.1-.5-.4-.7-1-.7-2.3-1.2-4-1.2-3.9 0-6.8 2.7-6.8 6.7-.1 3.9 2.7 6.7 6.7 6.7zm10.6-4c.7 0 .8-.5.8-.7 0-.2-.1-.7-.8-.7h-2.8c-.7 0-.8.5-.8.7 0 .3.1.7.8.7h2.8zm3.9 3.8c.3 0 .9-.2.9-1v-11c0-.8-.6-1-.9-1-.3 0-.9.2-.9 1v11c0 .9.6 1 .9 1zm13.6 0c.4 0 1.1-.2 1.1-1.3V77.1c0-.8-.6-1-.9-1-.3 0-.9.2-.9 1V86l-6.5-9c-.5-.8-.9-.9-1.3-.9s-1.1.2-1.1 1.3v10.7c0 .8.6 1 .9 1 .3 0 .9-.2.9-1v-9l6.5 9.1c.5.8.9.9 1.3.9zm17.9 0c.3 0 .9-.2.9-1v-11c0-.8-.6-1-.9-1-.3 0-.9.2-.9 1v4.5h-6.5v-4.5c0-.8-.6-1-.9-1-.3 0-.9.2-.9 1v11c0 .8.6 1 .9 1 .3 0 .9-.2.9-1v-5h6.5v5c0 .9.6 1 .9 1zm8 0c.3 0 .9-.2.9-1v-4.6l4.2-5.9c.2-.3.2-.5.2-.6 0-.5-.4-.8-.8-.8-.2 0-.5.1-.8.5l-3.7 5.4-3.6-5.3c-.3-.5-.6-.6-.9-.6-.5 0-.9.4-.9.9 0 .1 0 .4.3.7l4.2 5.8v4.6c0 .8.6.9.9.9zm11.4-.1c2.7 0 4.8-1.2 4.8-3.6 0-1.8-1.2-2.9-2.8-3.1 1.3-.4 2.2-1.4 2.2-2.8 0-2.4-2.1-3.2-4-3.2h-3.3c-.7 0-1.1.3-1.1 1.1V88c0 .7.3 1.1 1.1 1.1h3.1zm-.1-7.4h-2.3v-3.9h2c1.7 0 2.8.5 2.8 1.9s-1.1 2-2.5 2zm-.1 5.9h-2.2v-4.3h2.4c1.9 0 3 .6 3 2.1 0 1.7-1.7 2.2-3.2 2.2zm15.4 1.6c.5 0 .9-.4.9-.9 0-.2 0-.4-.2-.6l-3-4.5c1.8-.3 3.1-1.5 3.1-3.4 0-2.6-2.1-3.5-4.5-3.5h-3c-.7 0-1.1.3-1.1 1.1v10.8c0 .8.6 1 .9 1 .3 0 .9-.2.9-1v-4.8h1.9l3.3 5.3c.2.4.5.5.8.5zm-4-7.3h-2.1v-4.1h2.2c1.5 0 2.9.5 2.9 2 0 1.6-1.3 2.1-3 2.1zm8.1 7.3c.3 0 .9-.2.9-1v-11c0-.8-.6-1-.9-1-.3 0-.9.2-.9 1v11c0 .9.6 1 .9 1zm8.4-.1c3.3 0 6.9-2 6.9-6.4 0-4.5-3.6-6.4-6.9-6.4h-3.3c-.7 0-1.1.3-1.1 1.1v10.6c0 .7.3 1.1 1.1 1.1h3.3zm-.4-1.6h-2.2v-9.6h2.2c3.1 0 5.3 1.7 5.3 4.8 0 3.1-2.2 4.8-5.3 4.8zM349 12.7H208.5c-.7 0-1.2-.5-1.2-1.2s.5-1.2 1.2-1.2H349c.7 0 1.2.5 1.2 1.2s-.5 1.2-1.2 1.2zm-204.5 0H1c-.7 0-1.2-.5-1.2-1.2s.5-1.2 1.2-1.2h143.5c.7 0 1.2.5 1.2 1.2s-.5 1.2-1.2 1.2zM163.8 17c.7 0 .9-.5.9-.8 0-.3-.1-.8-.9-.8h-5.5l4.1-4c1.1-1.1 2.1-2.2 2.1-3.9 0-2.4-1.9-3.6-4-3.6-1.8 0-3.2 1-3.8 2.4-.1.2-.1.4-.1.5 0 .5.4.8.8.8.3 0 .7-.2.9-.7.4-1 1.2-1.5 2.2-1.5 1.3 0 2.3.9 2.3 2.2 0 1.1-.6 1.9-1.4 2.7l-4.6 4.7c-.4.4-.6.8-.6 1.1 0 .3.1.9 1.2.9h6.4zm7.4.3c3 0 4.3-3 4.3-6.7s-1.3-6.7-4.3-6.7-4.4 3-4.4 6.7c0 3.8 1.3 6.7 4.4 6.7zm0-1.5c-2.1 0-2.6-3.1-2.6-5.2s.5-5.2 2.6-5.2 2.6 3.1 2.6 5.2c-.1 2.2-.6 5.2-2.6 5.2zm14 1.2c.7 0 .9-.5.9-.8 0-.3-.1-.8-.9-.8h-5.5l4.1-4c1.1-1.1 2.1-2.2 2.1-3.9 0-2.4-1.9-3.6-4-3.6-1.8 0-3.2 1-3.8 2.4-.1.2-.1.4-.1.5 0 .5.4.8.8.8.3 0 .7-.2.9-.7.4-1 1.2-1.5 2.2-1.5 1.3 0 2.3.9 2.3 2.2 0 1.1-.6 1.9-1.4 2.7L178 15c-.4.4-.6.8-.6 1.1 0 .3.1.9 1.2.9h6.6zm8 .1c.3 0 .9-.1.9-1v-11c0-1-.6-1.1-1-1.1-.3 0-.5.1-.9.4l-2.7 2.2c-.4.4-.5.6-.5.8 0 .5.3.8.8.8.2 0 .4-.1.6-.2l1.9-1.6v9.8c0 .8.6.9.9.9z"/></svg>