<svg width="262" height="73" xmlns="http://www.w3.org/2000/svg" xmlns:xlink="http://www.w3.org/1999/xlink" aria-hidden="true"><defs><path id="a" d="M0 .212h37.42v23.65H0z"/></defs><g fill="none" fill-rule="evenodd"><path fill="#fff" d="M169.41 24L161 47h9.59L179 24zM188.047 47.825c2.034-5.62 6.88-19.01 7.267-20.085h-12.586l1.274-3.512h34.803c-.583 1.053-1.074 2.464-2.156 3.103-.854.506-2.584.415-3.65.41-1.278-.006-7.467.013-7.467.013l-7.265 20.07h-10.22zM52.468 47.86c-1.71 0-3.421.005-5.133-.015-1.616-.021-3.272-.094-4.824-.592-1.294-.415-2.597-1.133-2.869-2.585-.247-1.324.234-2.72.668-3.953 1.928-5.504 5.95-16.49 5.95-16.49l9.71.003c-1.202 3.25-2.392 6.505-3.567 9.766-.644 1.79-1.294 3.576-1.922 5.372-.549 1.572-1 2.867-1 3.422 0 1.04 1.336 1.107 2.957 1.166 1.034.035 2.07.028 3.105.027 1.227-.002 2.456-.007 3.685-.008l11.943-.029c-1.004.982-2.007 1.963-3.012 2.943-.378.37-.784.921-1.345.937-.451.014-.904.003-1.354.005-4.331.01-8.662.032-12.992.032"/><g transform="translate(1 24)"><mask id="b" fill="#fff"><use xlink:href="#a"/></mask><path d="M21.966 23.861c-2.994 0-5.991-.006-8.985-.085-3.105-.083-6.43-.01-9.33-1.265-1.478-.64-2.735-1.468-3.289-3.058-.56-1.61-.39-3.469-.031-5.104.403-1.84 1.124-3.592 1.858-5.318.625-1.472 1.403-2.889 2.403-4.138.91-1.139 2.013-2.176 3.313-2.847 1.43-.737 3.026-1.07 4.603-1.3C15.576.302 18.659.29 21.753.255 26.904.195 32.056.209 37.207.228h.214c-.426.983-.788 2.056-1.652 2.745-1.129.902-2.742.778-4.1.775-2.8-.01-5.603-.011-8.406.02-3.075.032-6.915-.2-9.169 2.322-1.039 1.164-1.84 2.557-2.499 3.965-.757 1.618-1.425 3.295-1.782 5.05-.255 1.258-.356 2.82.786 3.672.95.713 2.252.896 3.399 1.001 1.56.143 4.644.12 9.89.124 2.996.003 5.993-.002 8.989-.005h.02c-.326.883-.64 1.77-1.001 2.64-.272.653-.642 1.102-1.367 1.218-.44.068-.887.041-1.331.048-2.41.028-4.821.058-7.232.058" fill="#fff" mask="url(#b)"/></g><path d="M71.497 47.824c5.038-5.197 10.058-10.411 15.19-15.514 2.012-2 3.983-4.101 6.136-5.953 1.224-1.055 2.523-1.685 4.118-1.918 1.024-.15 2.436-.206 4.391-.207 1.908-.003 9.058-.005 9.058-.005l2.028 23.597h-9.163l-.47-6.092H85.897l-5.944 6.094-8.457-.002zm30.936-10.02l-.612-9.629s-.097-.01-.35-.008c-1.19.015-2.25-.044-3.17.808-2.764 2.565-8.363 8.589-8.59 8.83h12.722zM147.697 47.847c-1.097 0-2.043-.202-2.874-.957-.849-.772-1.607-1.672-2.386-2.512a306.62 306.62 0 01-3.98-4.392c-1.695-1.896-3.408-3.778-5.056-5.716 2.44.008 4.89.05 7.327-.097 1.584-.095 3.297-.288 4.668-1.16 1.197-.76 2.05-2.158 2.25-3.563.257-1.786-1.695-1.652-2.929-1.684-1.472-.035-2.948-.02-4.419-.024-1.711-.003-3.424-.005-5.135-.006-.595 0-.638-.06-.744.23l-6.494 17.953c-.223.618-.679 1.898-.679 1.898s-7.182.008-9.76.008l8.538-23.594 4.16-.005c3.952-.006 7.903-.01 11.854.002 2.78.008 5.56 0 8.339.067 1.945.044 4.63.089 6.026 1.686.963 1.1.806 2.747.471 4.063-.4 1.573-1.125 3.013-2.259 4.18-2.17 2.23-5 3.287-7.985 3.878l9.088 9.723c-2.675 0-5.35.022-8.02.022M227.747 47.825l2.988-8.213c.131-.363.17-.433.115-.52-.181-.295-.365-.586-.548-.88-.809-1.295-6.637-10.617-8.74-13.984h10.282l6.171 10.293c4.276-3.041 8.545-6.095 12.837-9.11 1.05-.741 1.914-1.175 3.216-1.231 1.233-.054 6.399-.03 7.742-.027-4.685 3.339-18.544 13.222-20.79 14.824-.496.352-.52.531-.738 1.144-.615 1.694-2.79 7.704-2.79 7.704h-9.745z" fill="#fff"/><g><path d="M260.7 64.25l-88.073.033m-81.237 0L1 64.25" stroke="#fff" stroke-width="2.432" stroke-linecap="round"/><path d="M99.676 68.866c.216 0 .662-.121.662-.753V64.51h3.796c.568 0 .649-.403.649-.578 0-.161-.081-.565-.649-.565h-3.796v-2.957h4.08c.58 0 .662-.403.662-.578 0-.188-.081-.591-.662-.591h-4.62c-.541 0-.798.255-.798.793v8.078c0 .632.446.753.676.753zm10.646.134c2.527 0 3.715-1.815 3.715-3.763v-5.35c0-.632-.445-.753-.675-.753-.216 0-.662.121-.662.753v5.269c0 1.304-.595 2.648-2.378 2.648-1.783 0-2.378-1.344-2.378-2.648v-5.269c0-.632-.446-.753-.662-.753-.23 0-.675.121-.675.753v5.35c0 1.948 1.202 3.763 3.715 3.763zm11.768-.242c.567 0 .648-.403.648-.591 0-.189-.08-.592-.648-.592h-4.459v-3.172h3.972c.568 0 .649-.403.649-.578 0-.174-.081-.564-.649-.564h-3.972v-2.85h4.243c.58 0 .662-.403.662-.578 0-.188-.081-.591-.662-.591h-4.783c-.54 0-.797.255-.797.793v7.93c0 .538.256.793.797.793h4.999zm7.377 0c.567 0 .662-.403.662-.591 0-.189-.095-.592-.662-.592h-3.716v-7.688c0-.632-.446-.753-.662-.753-.23 0-.675.121-.675.753v8.078c0 .538.256.793.797.793h4.256zm9.782.242c1.432 0 2.499-.524 3.175-1.223a.792.792 0 00.256-.565.573.573 0 00-.594-.591c-.162 0-.324.054-.54.269-.622.645-1.42.927-2.284.927-2.202 0-3.594-1.693-3.594-3.83 0-2.084 1.419-3.818 3.635-3.818.824 0 1.553.336 1.986.726.243.215.405.269.567.269a.616.616 0 00.635-.632c0-.134-.04-.322-.27-.537-.69-.632-1.797-.995-2.918-.995-2.905 0-5.094 2.016-5.094 4.987 0 2.93 2.108 5.013 5.04 5.013zm10.808-.242c.568 0 .649-.403.649-.591 0-.189-.081-.592-.649-.592H145.6v-3.172h3.972c.567 0 .648-.403.648-.578 0-.174-.08-.564-.648-.564h-3.972v-2.85h4.242c.58 0 .662-.403.662-.578 0-.188-.081-.591-.662-.591h-4.783c-.54 0-.797.255-.797.793v7.93c0 .538.257.793.797.793h5zm7.377 0c.567 0 .662-.403.662-.591 0-.189-.095-.592-.662-.592h-3.715v-7.688c0-.632-.446-.753-.663-.753-.23 0-.675.121-.675.753v8.078c0 .538.257.793.797.793h4.256zm6.904 0c.567 0 .662-.403.662-.591 0-.189-.095-.592-.662-.592h-3.715v-7.688c0-.632-.446-.753-.663-.753-.23 0-.675.121-.675.753v8.078c0 .538.257.793.797.793h4.256z" fill="#fff" fill-rule="nonzero"/></g><g><path d="M260.896 10.5H155.95m-47.792 0H1" stroke="#fff" stroke-width="2.432" stroke-linecap="round"/><path d="M122.7 14.758c.544 0 .637-.403.637-.591 0-.189-.093-.578-.636-.578h-4.03l3.009-3.011c.822-.82 1.511-1.653 1.511-2.876 0-1.775-1.405-2.702-2.97-2.702-1.312 0-2.36.726-2.81 1.76a1.054 1.054 0 00-.093.404c0 .39.292.605.61.605.252 0 .49-.161.65-.524.305-.726.875-1.156 1.63-1.156.928 0 1.67.645 1.67 1.64 0 .806-.463 1.424-1.033 2.016l-3.42 3.521c-.332.336-.425.565-.425.793 0 .229.106.7.862.7h4.839zm5.45.242c2.227 0 3.195-2.218 3.195-5 0-2.769-.968-5-3.195-5-2.24 0-3.209 2.231-3.209 5 0 2.782.968 5 3.209 5zm0-1.102c-1.552 0-1.896-2.285-1.896-3.898 0-1.6.344-3.911 1.896-3.911 1.524 0 1.882 2.312 1.882 3.911 0 1.613-.358 3.898-1.882 3.898zm10.327.86c.544 0 .637-.403.637-.591 0-.189-.093-.578-.637-.578h-4.03l3.01-3.011c.821-.82 1.51-1.653 1.51-2.876 0-1.775-1.405-2.702-2.969-2.702-1.312 0-2.36.726-2.81 1.76a1.054 1.054 0 00-.093.404c0 .39.291.605.61.605.251 0 .49-.161.65-.524.304-.726.874-1.156 1.63-1.156.928 0 1.67.645 1.67 1.64 0 .806-.464 1.424-1.034 2.016l-3.42 3.521c-.332.336-.424.565-.424.793 0 .229.106.7.861.7h4.84zm5.887.108c.212 0 .636-.108.636-.726V5.954c0-.712-.477-.82-.73-.82-.185 0-.384.081-.689.323l-1.975 1.626c-.225.175-.278.377-.278.525 0 .336.252.577.556.577.12 0 .292-.04.438-.174l1.392-1.183v7.312c0 .618.438.726.65.726z" fill="#fff" fill-rule="nonzero"/></g></g></svg>