<svg id="insight-hybrid-2022-hero" data-name="Layer 1" viewBox="0 0 304 72" xmlns="http://www.w3.org/2000/svg" aria-hidden="true"><defs><clipPath id="clip-path" transform="translate(4 -.77)"><path class="cls-1" d="M178.63 84.4h-2.23v-9.63h2.23c3.08 0 5.33 1.67 5.33 4.82s-2.25 4.81-5.33 4.81zM179 86c3.26 0 6.88-2 6.88-6.37 0-4.52-3.62-6.37-6.88-6.37h-3.31a.93.93 0 00-1.06 1.06V84.9a.93.93 0 001.05 1.1zm-8.35.15a.88.88 0 00.88-1v-11a.9.9 0 10-1.78 0v11a.89.89 0 00.89.96zm-8.12-7.31h-2.05v-4.11h2.18c1.55 0 2.86.49 2.86 2s-1.32 2.07-3 2.07zm4 7.31a.86.86 0 00.9-.88 1.13 1.13 0 00-.2-.62l-3-4.5a3.33 3.33 0 003.08-3.36c0-2.59-2.07-3.53-4.54-3.53h-3a.93.93 0 00-1.06 1.06V85.1a.9.9 0 101.78 0v-4.81h1.91l3.35 5.33a.91.91 0 00.77.49zm-15.37-1.66h-2.24v-4.38h2.4c1.94 0 3 .65 3 2.15 0 1.74-1.66 2.19-3.17 2.19zm.09-5.85h-2.33v-3.93h2c1.69 0 2.79.54 2.79 1.91s-1.11 1.98-2.47 1.98zm.09 7.36c2.66 0 4.79-1.17 4.79-3.61a3 3 0 00-2.83-3.1 2.81 2.81 0 002.23-2.77c0-2.43-2.07-3.22-4-3.22h-3.33a.93.93 0 00-1.07 1.06V84.9a.93.93 0 001.07 1.1zm-11.34.11a.88.88 0 00.88-1v-4.65l4.25-5.93a1.11 1.11 0 00.23-.64.81.81 0 00-.84-.81.94.94 0 00-.83.5L140 79l-3.62-5.33a1 1 0 00-.87-.55.87.87 0 00-.92.86 1.16 1.16 0 00.26.68l4.21 5.84v4.6a.89.89 0 00.94 1.01zm-8.05 0a.88.88 0 00.88-1v-11a.9.9 0 10-1.78 0v4.47h-6.46v-4.5a.9.9 0 10-1.78 0v11a.9.9 0 101.78 0v-5H131v5a.89.89 0 00.92 1.03z"/></clipPath><clipPath id="clip-path-2" transform="translate(4 -.77)"><path class="cls-1" d="M69 27.84q-3.61 9.9-7.21 19.8L53 34.27c-.47-.7-1.51-2.29-1.91-2.85-1.71-2.42-2.45-3.58-7.09-3.58h-9.75q-5.64 15.5-11.29 31h9.2l7.77-21.34h.24c1.09 0 1.25.16 1.77.9.31.44 1.26 1.87 1.48 2.2l12.09 18.25h11.41l11.28-31H69"/></clipPath><clipPath id="clip-path-3" transform="translate(4 -.77)"><path class="cls-1" d="M22 26.96h57v32H22z"/></clipPath><clipPath id="clip-path-4" transform="translate(4 -.77)"><path class="cls-1" d="M25.41 27.84H12.29Q6.64 43.34 1 58.85h13.13l11.28-31"/></clipPath><clipPath id="clip-path-5" transform="translate(4 -.77)"><path class="cls-1" d="M262.38 58.85h13.77c.42-1.18 7.64-21 7.72-21.23.15-.4.44-1.15.6-1.53 1.06-2.51 1.67-2.89 4.22-3.06.5 0 .88-.05 1.29-.05h9c2.57-.09 3.14-.48 4.31-2.51.31-.54.92-1.76 1.29-2.59h-47.64c-.62 1.71-1.25 3.42-1.87 5.14h16.75q-4.72 12.93-9.44 25.87"/></clipPath><clipPath id="clip-path-6" transform="translate(4 -.77)"><path class="cls-1" d="M255 26.96h50v32h-50z"/></clipPath><clipPath id="clip-path-7" transform="translate(4 -.77)"><path class="cls-1" d="M239 27.84L234.6 40h-17.7q2.19-6 4.39-12.11h-13.13q-5.66 15.51-11.29 31h13c.26-.69 3-7.9 3.24-8.56.15-.4.46-1.15.63-1.52 1.14-2.44 1.65-2.9 4.2-3.08H232.48q-2.41 6.6-4.81 13.2h13.13q5.64-15.51 11.29-31H239"/></clipPath><clipPath id="clip-path-8" transform="translate(4 -.77)"><path class="cls-1" d="M180.8 33h14.25c2.57-.09 3.09-.41 4.2-2.39.22-.39.58-1.11.89-1.77.18-.36.35-.72.45-.95H177c-1.15 0-2.85.05-4.36.1a53.39 53.39 0 00-9 .86c-4.78 1-7 2.83-9.42 7.07a41.28 41.28 0 00-3.12 6.87 43.65 43.65 0 00-1.88 6.83c-.74 4.24.84 6.89 4.38 8.13 3.77 1.33 8.6 1.71 14.43 1.73 2.89 0 5.95-.09 7.3-.2 13-1 14.29-2.18 17.05-9 1.1-2.69 2.64-7.2 3.78-10.28h-21.78l-1.81 5.1h9.9q-.81 2.24-1.61 4.48c-1.24 2.86-1.58 3.67-7.28 4.14-1 .08-1.71.1-3.58.1a22.56 22.56 0 01-5.5-.47c-2.62-.63-2.83-1.66-2.27-4.57a40.16 40.16 0 014.51-11.7c1.19-1.87 2.15-3.06 4.4-3.53A32.68 32.68 0 01178 33h2.83"/></clipPath><clipPath id="clip-path-9" transform="translate(4 -.77)"><path class="cls-1" d="M149 26.96h52v33h-52z"/></clipPath><clipPath id="clip-path-10" transform="translate(4 -.77)"><path class="cls-1" d="M148.72 27.84H135.6q-5.64 15.5-11.29 31h13.13l11.28-31"/></clipPath><clipPath id="clip-path-11" transform="translate(4 -.77)"><path class="cls-1" d="M101.74 32.77a11.79 11.79 0 00-2.46.21 3.75 3.75 0 00-2.67 2.28c-.17.68.19 1.29 2.19 1.81l14.61 3.69s1.66.47 3 .88 4 1.38 4.36 3.89a6.57 6.57 0 01-.62 3.57 15.21 15.21 0 01-8.75 8.53 27.85 27.85 0 01-7.68 1.17c-6.82 0-25.48.1-29.85 0l2.2-3.8c.66-1.2 1-1.41 2.62-1.41h20a18.91 18.91 0 003.09-.29 4.35 4.35 0 003.27-2.41c.5-1.17.1-1.71-1.51-2.17l-3.74-1.08c-2.34-.62-9.79-2.71-12.94-3.66-2.74-.83-4.81-2.14-5.19-4.14a5.92 5.92 0 01.6-3.36 14.21 14.21 0 018.47-7.63 29.64 29.64 0 018.09-1H128c-.35.77-.68 1.41-1.08 2.14a10.11 10.11 0 01-.75 1.18 3.22 3.22 0 01-2.57 1.48 17.62 17.62 0 01-2 .13h-19.86"/></clipPath><clipPath id="clip-path-12" transform="translate(4 -.77)"><path class="cls-1" d="M73 26.96h56v32H73z"/></clipPath><style>#insight-hybrid-2022-hero .cls-1,#insight-hybrid-2022-hero .cls-15{fill:#fff}#insight-hybrid-2022-hero .cls-3{isolation:isolate}#insight-hybrid-2022-hero .cls-15{stroke:#fff;stroke-miterlimit:10;stroke-width:.25px}</style></defs><path class="cls-1" d="M304.5 81.68l-107.43-.07a1.22 1.22 0 110-2.43l107.42.07a1.22 1.22 0 110 2.43zm-303 0a1.22 1.22 0 110-2.43l108.3-.07a1.22 1.22 0 110 2.43l-108.3.07zM178.63 84.4h-2.23v-9.63h2.23c3.08 0 5.33 1.67 5.33 4.82s-2.25 4.81-5.33 4.81zM179 86c3.26 0 6.88-2 6.88-6.37 0-4.52-3.62-6.37-6.88-6.37h-3.31a.93.93 0 00-1.06 1.06V84.9a.93.93 0 001.05 1.1zm-8.35.15a.88.88 0 00.88-1v-11a.9.9 0 10-1.78 0v11a.89.89 0 00.89.96zm-8.12-7.31h-2.05v-4.11h2.18c1.55 0 2.86.49 2.86 2s-1.32 2.07-3 2.07zm4 7.31a.86.86 0 00.9-.88 1.13 1.13 0 00-.2-.62l-3-4.5a3.33 3.33 0 003.08-3.36c0-2.59-2.07-3.53-4.54-3.53h-3a.93.93 0 00-1.06 1.06V85.1a.9.9 0 101.78 0v-4.81h1.91l3.35 5.33a.91.91 0 00.77.49zm-15.37-1.66h-2.24v-4.38h2.4c1.94 0 3 .65 3 2.15 0 1.74-1.66 2.19-3.17 2.19zm.09-5.85h-2.33v-3.93h2c1.69 0 2.79.54 2.79 1.91s-1.11 1.98-2.47 1.98zm.09 7.36c2.66 0 4.79-1.17 4.79-3.61a3 3 0 00-2.83-3.1 2.81 2.81 0 002.23-2.77c0-2.43-2.07-3.22-4-3.22h-3.33a.93.93 0 00-1.07 1.06V84.9a.93.93 0 001.07 1.1zm-11.34.11a.88.88 0 00.88-1v-4.65l4.25-5.93a1.11 1.11 0 00.23-.64.81.81 0 00-.84-.81.94.94 0 00-.83.5L140 79l-3.62-5.33a1 1 0 00-.87-.55.87.87 0 00-.92.86 1.16 1.16 0 00.26.68l4.21 5.84v4.6a.89.89 0 00.94 1.01zm-8.05 0a.88.88 0 00.88-1v-11a.9.9 0 10-1.78 0v4.47h-6.46v-4.5a.9.9 0 10-1.78 0v11a.9.9 0 101.78 0v-5H131v5a.89.89 0 00.92 1.03z" transform="translate(4 -.77)"/><g class="cls-2" clip-path="url(#clip-path)"><path class="cls-1" d="M121.78 67.31h73.09v23.03h-73.09z"/></g><g class="cls-3"><path class="cls-1" d="M69 27.84q-3.61 9.9-7.21 19.8L53 34.27c-.47-.7-1.51-2.29-1.91-2.85-1.71-2.42-2.45-3.58-7.09-3.58h-9.75q-5.64 15.5-11.29 31h9.2l7.77-21.34h.24c1.09 0 1.25.16 1.77.9.31.44 1.26 1.87 1.48 2.2l12.09 18.25h11.41l11.28-31H69" transform="translate(4 -.77)"/><g class="cls-4" clip-path="url(#clip-path-2)"><path class="cls-1" d="M26 26.2h57v32H26z"/><g class="cls-5" clip-path="url(#clip-path-3)"><path class="cls-1" d="M21.96 22.07H87.2v41.01H21.96z"/></g></g></g><path class="cls-1" d="M25.41 27.84H12.29Q6.64 43.34 1 58.85h13.13l11.28-31" transform="translate(4 -.77)"/><g class="cls-6" clip-path="url(#clip-path-4)"><path class="cls-1" d="M0 22.07h34.41v41.01H0z"/></g><g class="cls-3"><path class="cls-1" d="M262.38 58.85h13.77c.42-1.18 7.64-21 7.72-21.23.15-.4.44-1.15.6-1.53 1.06-2.51 1.67-2.89 4.22-3.06.5 0 .88-.05 1.29-.05h9c2.57-.09 3.14-.48 4.31-2.51.31-.54.92-1.76 1.29-2.59h-47.64c-.62 1.71-1.25 3.42-1.87 5.14h16.75q-4.72 12.93-9.44 25.87" transform="translate(4 -.77)"/><g class="cls-7" clip-path="url(#clip-path-5)"><path class="cls-1" d="M259 26.2h50v32h-50z"/><g class="cls-8" clip-path="url(#clip-path-6)"><path class="cls-1" d="M254.07 22.07h59.51v41.01h-59.51z"/></g></g></g><path class="cls-1" d="M239 27.84L234.6 40h-17.7q2.19-6 4.39-12.11h-13.13q-5.66 15.51-11.29 31h13c.26-.69 3-7.9 3.24-8.56.15-.4.46-1.15.63-1.52 1.14-2.44 1.65-2.9 4.2-3.08H232.48q-2.41 6.6-4.81 13.2h13.13q5.64-15.51 11.29-31H239" transform="translate(4 -.77)"/><g class="cls-9" clip-path="url(#clip-path-7)"><path class="cls-1" d="M195.87 22.07h65.25v41.01h-65.25z"/></g><g class="cls-3"><path class="cls-1" d="M180.8 33h14.25c2.57-.09 3.09-.41 4.2-2.39.22-.39.58-1.11.89-1.77.18-.36.35-.72.45-.95H177c-1.15 0-2.85.05-4.36.1a53.39 53.39 0 00-9 .86c-4.78 1-7 2.83-9.42 7.07a41.28 41.28 0 00-3.12 6.87 43.65 43.65 0 00-1.88 6.83c-.74 4.24.84 6.89 4.38 8.13 3.77 1.33 8.6 1.71 14.43 1.73 2.89 0 5.95-.09 7.3-.2 13-1 14.29-2.18 17.05-9 1.1-2.69 2.64-7.2 3.78-10.28h-21.78l-1.81 5.1h9.9q-.81 2.24-1.61 4.48c-1.24 2.86-1.58 3.67-7.28 4.14-1 .08-1.71.1-3.58.1a22.56 22.56 0 01-5.5-.47c-2.62-.63-2.83-1.66-2.27-4.57a40.16 40.16 0 014.51-11.7c1.19-1.87 2.15-3.06 4.4-3.53A32.68 32.68 0 01178 33h2.83" transform="translate(4 -.77)"/><g class="cls-10" clip-path="url(#clip-path-8)"><path class="cls-1" d="M153 26.2h52v33h-52z"/><g class="cls-11" clip-path="url(#clip-path-9)"><path class="cls-1" d="M148.01 22.07h61.58v41.59h-61.58z"/></g></g></g><path class="cls-1" d="M148.72 27.84H135.6q-5.64 15.5-11.29 31h13.13l11.28-31" transform="translate(4 -.77)"/><g class="cls-12" clip-path="url(#clip-path-10)"><path class="cls-1" d="M123.31 22.07h34.41v41.01h-34.41z"/></g><g class="cls-3"><path class="cls-1" d="M101.74 32.77a11.79 11.79 0 00-2.46.21 3.75 3.75 0 00-2.67 2.28c-.17.68.19 1.29 2.19 1.81l14.61 3.69s1.66.47 3 .88 4 1.38 4.36 3.89a6.57 6.57 0 01-.62 3.57 15.21 15.21 0 01-8.75 8.53 27.85 27.85 0 01-7.68 1.17c-6.82 0-25.48.1-29.85 0l2.2-3.8c.66-1.2 1-1.41 2.62-1.41h20a18.91 18.91 0 003.09-.29 4.35 4.35 0 003.27-2.41c.5-1.17.1-1.71-1.51-2.17l-3.74-1.08c-2.34-.62-9.79-2.71-12.94-3.66-2.74-.83-4.81-2.14-5.19-4.14a5.92 5.92 0 01.6-3.36 14.21 14.21 0 018.47-7.63 29.64 29.64 0 018.09-1H128c-.35.77-.68 1.41-1.08 2.14a10.11 10.11 0 01-.75 1.18 3.22 3.22 0 01-2.57 1.48 17.62 17.62 0 01-2 .13h-19.86" transform="translate(4 -.77)"/><g class="cls-13" clip-path="url(#clip-path-11)"><path class="cls-1" d="M77 26.2h56v32H77z"/><g class="cls-14" clip-path="url(#clip-path-12)"><path class="cls-1" d="M72.84 22.07H137V63.1H72.84z"/></g></g></g><path class="cls-1" d="M304.58 9.68H186.5a1.22 1.22 0 110-2.43h118.08a1.22 1.22 0 010 2.43zm-182.08 0H2.5a1.22 1.22 0 110-2.43h120a1.22 1.22 0 110 2.43z" transform="translate(4 -.77)"/><path class="cls-15" d="M138.23.89c2.05 0 3.83 1.19 3.83 3.51 0 1.64-.95 2.74-2.07 3.86l-4.52 4.55h6.18a.57.57 0 01.63.58.56.56 0 01-.63.57h-6.91c-.76 0-.87-.5-.87-.73a1.11 1.11 0 01.4-.76l4.95-5.13a4.38 4.38 0 001.53-2.92A2.4 2.4 0 00138.23 2a2.63 2.63 0 00-2.47 1.71c-.2.49-.45.6-.66.6a.58.58 0 01-.63-.6 1 1 0 01.07-.4 3.9 3.9 0 013.69-2.42zM148.74 14.29c-3.2 0-4.18-3.37-4.18-6.68s1-6.72 4.18-6.72 4.18 3.41 4.18 6.72-1.01 6.68-4.18 6.68zm0-12.3c-2.27 0-2.86 3.08-2.86 5.62s.59 5.56 2.86 5.56 2.86-3 2.86-5.56S151 2 148.74 2zM159.11.89c2 0 3.83 1.19 3.83 3.51 0 1.64-.95 2.74-2.07 3.86l-4.52 4.55h6.18a.57.57 0 01.63.58.56.56 0 01-.63.57h-6.91c-.76 0-.87-.5-.87-.73a1.11 1.11 0 01.4-.76l4.95-5.13a4.38 4.38 0 001.53-2.92A2.4 2.4 0 00159.11 2a2.63 2.63 0 00-2.47 1.71c-.2.49-.45.6-.66.6a.58.58 0 01-.63-.6 1 1 0 01.07-.4 3.9 3.9 0 013.69-2.42zM169.55.89c2 0 3.83 1.19 3.83 3.51 0 1.64-.95 2.74-2.07 3.86l-4.52 4.55H173a.57.57 0 01.63.58.56.56 0 01-.63.61h-6.91c-.76 0-.87-.5-.87-.73a1.11 1.11 0 01.4-.76l4.95-5.13a4.38 4.38 0 001.53-2.92A2.4 2.4 0 00169.55 2a2.63 2.63 0 00-2.47 1.71c-.2.49-.45.6-.66.6a.58.58 0 01-.63-.6 1 1 0 01.07-.4 3.9 3.9 0 013.69-2.42z" transform="translate(4 -.77)"/></svg>