<svg id="2022-Insight-Hybrid-FLM-White" xmlns="http://www.w3.org/2000/svg" viewBox="0 0 304 72" aria-hidden="true"><style/><switch><g><g fill="#fff"><path d="M303.5 11.5l-107.43-.07m-87.27 0L.5 11.5M303.5 12.72l-107.43-.07c-.67 0-1.22-.54-1.21-1.22 0-.67.54-1.21 1.22-1.21l107.42.07c.67 0 1.22.54 1.21 1.22.01.66-.54 1.21-1.21 1.21zm-303 0c-.67 0-1.22-.54-1.22-1.21 0-.67.54-1.22 1.22-1.22l108.3-.07c.67 0 1.22.54 1.22 1.21 0 .67-.54 1.22-1.21 1.22L.5 12.72z" transform="translate(0 72)"/><g><path d="M130.03 5.12c0-.85.59-1.01.9-1.01.29 0 .88.16.88 1.01v11.02c0 .85-.59 1.01-.88 1.01-.31 0-.9-.16-.9-1.01v-4.97h-6.46v4.97c0 .85-.59 1.01-.88 1.01-.31 0-.9-.16-.9-1.01V5.12c0-.85.59-1.01.9-1.01.29 0 .88.16.88 1.01v4.47h6.46V5.12zM139.85 11.49v4.65c0 .85-.59 1.01-.88 1.01-.31 0-.9-.16-.9-1.01v-4.65l-4.21-5.83c-.22-.31-.25-.54-.25-.68 0-.5.4-.86.92-.86.25 0 .54.09.86.56l3.62 5.33 3.65-5.38c.29-.43.59-.5.83-.5.43 0 .85.31.85.81 0 .16-.05.4-.23.65l-4.26 5.9zM147.2 17c-.72 0-1.06-.34-1.06-1.06V5.31c0-.72.34-1.06 1.06-1.06h3.33c1.93 0 4 .79 4 3.22 0 1.4-.9 2.41-2.23 2.77v.04c1.64.2 2.83 1.31 2.83 3.1 0 2.45-2.12 3.62-4.79 3.62h-3.14zm.72-7.36h2.32c1.37 0 2.5-.59 2.5-1.98 0-1.37-1.1-1.91-2.79-1.91h-2.03v3.89zm0 5.85h2.23c1.51 0 3.17-.47 3.17-2.2 0-1.49-1.06-2.14-3.01-2.14h-2.39v4.34zM161.38 11.33h-1.91v4.81c0 .85-.59 1.01-.88 1.01-.31 0-.9-.16-.9-1.01V5.31c0-.72.34-1.06 1.06-1.06h3.02c2.47 0 4.54.94 4.54 3.53 0 1.87-1.26 3.06-3.08 3.37l2.99 4.5c.16.25.2.45.2.61 0 .5-.36.88-.9.88-.25 0-.56-.11-.79-.49l-3.35-5.32zm-1.91-1.5h2.05c1.67 0 2.99-.52 2.99-2.05s-1.31-2.02-2.86-2.02h-2.18v4.07zM170.52 16.14c0 .85-.59 1.01-.88 1.01-.31 0-.9-.16-.9-1.01V5.12c0-.85.59-1.01.9-1.01.29 0 .88.16.88 1.01v11.02zM174.68 17c-.72 0-1.06-.34-1.06-1.06V5.31c0-.72.34-1.06 1.06-1.06h3.31c3.26 0 6.88 1.85 6.88 6.37 0 4.36-3.62 6.37-6.88 6.37h-3.31zm.72-1.57h2.23c3.08 0 5.33-1.76 5.33-4.81 0-3.15-2.25-4.83-5.33-4.83h-2.23v9.64z" transform="translate(0 72)"/></g></g><path d="M46.77.58c-2.4 6.6-4.8 13.2-7.21 19.8-2.92-4.46-5.85-8.91-8.77-13.37-.46-.7-1.51-2.28-1.91-2.85C27.16 1.72 26.43.58 21.74.58h-9.7C8.27 10.91 4.5 21.25.74 31.59h9.2c2.59-7.11 5.18-14.23 7.77-21.34h.24c1.09.01 1.25.16 1.77.89.32.45 1.27 1.87 1.48 2.21l12.09 18.24H44.7C48.46 21.25 52.22 10.92 55.99.58h-9.22" mask="url(#mask-2_1_)" fill-rule="evenodd" clip-rule="evenodd" fill="#fff" transform="translate(21.221 30.295)"/><path d="M24.41.87H11.29C7.52 11.21 3.76 21.55 0 31.88h13.13C16.89 21.55 20.65 11.21 24.41.87" fill-rule="evenodd" clip-rule="evenodd" fill="#fff" transform="translate(0 30)"/><path d="M8.18 31.59h13.76c.43-1.18 7.64-21.01 7.72-21.22.15-.41.44-1.16.6-1.53 1.06-2.51 1.67-2.89 4.22-3.07.5-.03.88-.05 1.3-.05h6.89c.86 0 1.17 0 2.1-.04 2.56-.09 3.14-.48 4.31-2.51.31-.54.92-1.76 1.29-2.59H2.74C2.12 2.29 1.5 4 .87 5.72h16.75c-3.15 8.62-6.29 17.24-9.44 25.87" mask="url(#mask-4_1_)" fill-rule="evenodd" clip-rule="evenodd" fill="#fff" transform="translate(253.2 30.295)"/><path d="M237.98.87l-4.38 12.12h-17.7L220.28.87h-13.13c-3.76 10.34-7.52 20.67-11.29 31.01h13.03c.26-.69 2.99-7.9 3.24-8.56.15-.41.45-1.15.62-1.52 1.14-2.44 1.66-2.9 4.21-3.08.5-.03.88-.04 1.3-.04h13.23c-1.6 4.4-3.21 8.8-4.81 13.2h13.13c3.76-10.34 7.52-20.67 11.29-31.01h-13.12" fill-rule="evenodd" clip-rule="evenodd" fill="#fff" transform="translate(0 30)"/><path d="M32.51 5.74c1.43-.01 10.38-.01 11.88-.01 1.04 0 1.23 0 2.38-.04 2.56-.09 3.08-.41 4.19-2.39.22-.4.58-1.11.9-1.77.17-.36.35-.72.45-.95H28.66c-1.15-.01-2.85.05-4.36.1-3.23.1-6.4.31-8.98.87-4.79 1.01-7.01 2.83-9.43 7.06a42.499 42.499 0 00-3.12 6.87c-.86 2.5-1.48 4.53-1.88 6.83-.74 4.24.84 6.89 4.37 8.13 3.77 1.33 8.6 1.71 14.44 1.73 2.89.01 5.95-.09 7.29-.2 13.03-1.03 14.29-2.18 17.06-8.98 1.1-2.69 2.64-7.2 3.78-10.28H26.09c-.6 1.7-1.21 3.4-1.81 5.1h9.9c-.54 1.49-1.07 2.98-1.61 4.47-1.24 2.87-1.58 3.67-7.27 4.15-.96.08-1.72.1-3.59.1-2.03 0-3.74-.04-5.49-.47-2.62-.64-2.84-1.67-2.27-4.58.65-3.35 2.58-8.68 4.5-11.69 1.2-1.88 2.15-3.06 4.4-3.54 2.1-.45 4.34-.51 6.83-.51h2.83" mask="url(#mask-6_1_)" fill-rule="evenodd" clip-rule="evenodd" fill="#fff" transform="translate(147.288 30.295)"/><path d="M147.72.87H134.6c-3.76 10.34-7.53 20.67-11.29 31.01h13.13c3.76-10.33 7.52-20.67 11.28-31.01" fill-rule="evenodd" clip-rule="evenodd" fill="#fff" transform="translate(0 30)"/><path d="M27.96 5.51c-.77 0-1.72.04-2.45.21-1.03.23-2.38 1.15-2.67 2.28-.17.68.19 1.29 2.19 1.81l14.61 3.69c.01.01 1.66.46 2.98.88 1.31.41 3.95 1.39 4.36 3.89.16.98-.05 2.2-.63 3.56-1.81 4.24-5.05 7.22-8.74 8.54-1.83.65-5.19 1.15-7.68 1.16-6.82.04-25.48.1-29.85.03.74-1.29 1.49-2.58 2.23-3.88.66-1.21.95-1.41 2.62-1.41.37 0 .74-.01 1.11-.01 6.31 0 12.63 0 18.94.01.59-.01 1.27-.01 3.09-.29 1.41-.21 2.75-1.19 3.27-2.41.5-1.17.1-1.71-1.5-2.17-1.25-.36-2.5-.72-3.74-1.08-2.34-.62-9.79-2.7-12.94-3.66-2.74-.83-4.81-2.14-5.19-4.14-.17-.91.02-2.07.59-3.36.85-1.93 3.23-5.85 8.48-7.63 2.53-.86 6.5-.96 8.08-.96h29.12c-.35.77-.68 1.41-1.08 2.15-.27.49-.48.8-.75 1.18-.64.92-1.32 1.31-2.58 1.48-.41.06-1.35.13-1.99.13H27.96" mask="url(#mask-8_1_)" fill-rule="evenodd" clip-rule="evenodd" fill="#fff" transform="translate(72.772 30.295)"/><g fill="#fff"><path d="M302.58 7.57H184.5m-64 0H.5M302.58 8.78H184.5c-.67 0-1.22-.54-1.22-1.22s.54-1.22 1.22-1.22h118.08c.67 0 1.22.54 1.22 1.22s-.55 1.22-1.22 1.22zm-182.08 0H.5c-.67 0-1.22-.54-1.22-1.22S-.18 6.34.5 6.34h120c.67 0 1.22.54 1.22 1.22s-.55 1.22-1.22 1.22zM139.76 13.07c.74 0 .86-.54.86-.79s-.13-.77-.86-.77h-5.47l4.09-4.03c1.12-1.1 2.05-2.21 2.05-3.85 0-2.38-1.91-3.62-4.03-3.62-1.78 0-3.2.97-3.82 2.36-.07.16-.13.36-.13.54 0 .52.4.81.83.81.34 0 .67-.22.88-.7.41-.97 1.19-1.55 2.21-1.55 1.26 0 2.27.86 2.27 2.2 0 1.08-.63 1.91-1.4 2.7l-4.64 4.72c-.45.45-.58.76-.58 1.06s.14.94 1.17.94h6.57zm7.39.32c3.02 0 4.34-2.97 4.34-6.7 0-3.71-1.31-6.7-4.34-6.7-3.04 0-4.36 2.99-4.36 6.7.01 3.73 1.32 6.7 4.36 6.7zm0-1.47c-2.11 0-2.57-3.06-2.57-5.22 0-2.14.47-5.24 2.57-5.24 2.07 0 2.56 3.1 2.56 5.24 0 2.16-.49 5.22-2.56 5.22zm14.03 1.15c.74 0 .86-.54.86-.79s-.13-.77-.86-.77h-5.47l4.09-4.03c1.12-1.1 2.05-2.21 2.05-3.85 0-2.38-1.91-3.62-4.03-3.62-1.78 0-3.2.97-3.82 2.36-.07.16-.13.36-.13.54 0 .52.4.81.83.81.34 0 .67-.22.88-.7.41-.97 1.19-1.55 2.21-1.55 1.26 0 2.27.86 2.27 2.2 0 1.08-.63 1.91-1.4 2.7l-4.64 4.72c-.45.45-.58.76-.58 1.06s.14.94 1.17.94h6.57zm11 0c.74 0 .86-.54.86-.79s-.13-.77-.86-.77h-5.47l4.09-4.03c1.12-1.1 2.05-2.21 2.05-3.85 0-2.38-1.91-3.62-4.03-3.62-1.78 0-3.2.97-3.82 2.36-.07.16-.13.36-.13.54 0 .52.4.81.83.81.34 0 .67-.22.88-.7.41-.97 1.19-1.55 2.21-1.55 1.26 0 2.27.86 2.27 2.2 0 1.08-.63 1.91-1.4 2.7l-4.64 4.72c-.45.45-.58.76-.58 1.06s.14.94 1.17.94h6.57z" transform="translate(1 3.932)"/></g></g></switch></svg>