<svg id="CPO-Logo" aria-label="Certified Pre-Owned" xmlns="http://www.w3.org/2000/svg" viewBox="0 0 840 212.09" aria-hidden="true"><style>#CPO-Logo .cls-3{fill:#fff}</style><g class="cls-2" clip-path="url(&quot;#clip-path&quot;)"><path class="cls-3" d="M336.42 73c0-26.89 19.67-43.84 45.5-43.84 9.6 0 19 3 24.53 7.7 2.85 2.49 3.32 4.51 3.32 6.16a6.83 6.83 0 01-7 6.88c-1.55 0-3.08-.48-5.69-2.37a24 24 0 00-15.17-5.22c-17.3 0-29 13.39-29 30.69 0 18.25 11.14 30.93 28.44 30.93a25.07 25.07 0 0017.53-6.52c2.49-2.13 4-2.48 5.58-2.48a6.3 6.3 0 016.63 6.51 9.16 9.16 0 01-3.08 6.4c-5.33 5.21-14.81 9.48-26.78 9.48-26.19 0-44.79-18.13-44.79-44.32M434 91.24c.6 8.06 7.94 14 16.24 14a18.48 18.48 0 0013-4.86c2-1.65 3.32-2 4.85-2a5.48 5.48 0 015.7 5.69 7.23 7.23 0 01-2.38 5.09c-5.56 5.34-12 7.71-21.09 7.71-17.53 0-30.57-11.26-30.57-29.75s12.92-30.45 30.1-30.45c13.75 0 24.88 7.82 27.13 24.53a29.24 29.24 0 01.24 3c0 5-2.72 7.11-7.47 7.11zm29.15-10.19c0-7.35-4.15-13.74-13.39-13.74-8.41 0-15.16 5.8-15.76 13.74zM495.88 116.24c-2.37 0-7.11-1.18-7.11-7.94V64.82c0-6.4 4.62-7.59 6.75-7.59s6.88 1.19 6.88 7.59v3h.24c2.24-6.16 7.93-11.14 14.81-11.14 4.26 0 7.34 2.14 7.34 6.28 0 3.67-2.25 6.87-7.7 6.87-9 0-14.1 6.76-14.1 16.24v22.23c0 6.76-4.74 7.94-7.11 7.94M560.09 116.36c-15 0-18.36-9.24-18.36-20.14V69.67h-4.63c-5.44 0-6.39-3.79-6.39-5.68s.95-5.69 6.39-5.69h4.63v-9.83c0-6.52 4.62-7.71 7-7.71s7 1.19 7 7.71v9.83h8.89c5.45 0 6.4 3.79 6.4 5.69s-1 5.68-6.4 5.68h-8.89V96.1c0 5.57 1.9 8.53 5.45 8.53a18.07 18.07 0 002.25-.24 10.35 10.35 0 011.66-.12 5.19 5.19 0 015.45 5.34 5.78 5.78 0 01-3.44 5.21 16 16 0 01-7 1.54M589.82 47.52a8.76 8.76 0 01-9-8.53 8.75 8.75 0 019-8.53c5.22 0 9.25 3.67 9.25 8.53s-4 8.53-9.25 8.53m.12 68.72c-2.36 0-7.11-1.18-7.11-7.94V65.17c0-6.75 4.75-7.94 7.11-7.94s7.11 1.19 7.11 7.94v43.13c0 6.76-4.74 7.94-7.11 7.94M613.52 69.68c-5.45 0-6.4-3.79-6.4-5.69s1-5.69 6.4-5.69H619v-8.41c0-13.63 5.33-25.72 21.8-25.72 5.92 0 9 2 9 6.28 0 3.21-2.13 5.81-6.63 5.81-7.7 0-10 4.86-10 12.8v9.24H641c5.45 0 6.39 3.79 6.39 5.69s-.94 5.69-6.39 5.69h-7.83v38.62c0 6.76-4.73 7.94-7.1 7.94s-7.07-1.18-7.07-7.94V69.68zM667.54 47.52a8.77 8.77 0 01-9-8.53 8.76 8.76 0 019-8.53c5.21 0 9.24 3.67 9.24 8.53s-4 8.53-9.24 8.53m.12 68.72c-2.37 0-7.11-1.18-7.11-7.94V65.17c0-6.75 4.74-7.94 7.11-7.94s7.1 1.19 7.1 7.94v43.13c0 6.76-4.73 7.94-7.1 7.94M703 91.24c.59 8.06 7.94 14 16.23 14a18.49 18.49 0 0013-4.86c2-1.65 3.31-2 4.86-2a5.47 5.47 0 015.68 5.69 7.21 7.21 0 01-2.37 5.09c-5.57 5.34-12 7.71-21.09 7.71-17.53 0-30.57-11.26-30.57-29.75s12.91-30.45 30.1-30.45c13.74 0 24.88 7.82 27.13 24.53a29.24 29.24 0 01.24 3c0 5-2.73 7.11-7.47 7.11zm29.15-10.19c0-7.35-4.15-13.74-13.39-13.74-8.41 0-15.17 5.8-15.76 13.74zM813.5 116.24c-2.14 0-6.76-1.06-6.76-7.47v-2.13h-.23c-3.91 6.52-11.62 10.19-19.55 10.19-17.31 0-28-13.74-28-30.33 0-16.82 11.37-29.86 27.61-29.86 10.43 0 16.11 5.22 19.07 8.89h.36V32.47c0-6.76 4.74-7.94 7.11-7.94s7.11 1.18 7.11 7.94v76.3c0 6.41-4.62 7.47-6.75 7.47M789.8 105c10.43 0 16.71-9.36 16.71-18.25s-6.28-18.48-16.71-18.48c-11 0-16.35 9.36-16.35 18.24S778.78 105 789.8 105M357.45 138.69c9.75 0 16.18 4.19 16.18 12.8s-6.57 12.86-16.32 12.86h-8.53v20a2.45 2.45 0 11-4.87 0V141.6c0-2 .95-2.91 2.91-2.91zm-8.67 21.53H357c7.59 0 11.71-3.05 11.71-8.73 0-5.89-4.33-8.61-11.71-8.61h-8.26zM401.65 187.09a2.21 2.21 0 01-2.3-2.5v-22.68c0-1.22-.07-4-.14-5.08a2.09 2.09 0 012.17-2.37c.74 0 2.17.27 2.24 2.37l.12 3.52h.15a11.27 11.27 0 0110.11-6.23 5.55 5.55 0 012 .27 1.91 1.91 0 011.29 1.83c0 1.49-1 2.24-2.51 2.24-.67 0-1.08-.07-1.55-.07-4.88 0-9.28 3.52-9.28 12v14.22a2.21 2.21 0 01-2.3 2.5M441.46 172A11.55 11.55 0 00453 183.51a11.93 11.93 0 009.14-4.13 2.32 2.32 0 011.76-.88 2 2 0 012.1 2 2.34 2.34 0 01-.67 1.62 16.07 16.07 0 01-12.33 5.31c-9.41 0-16.38-7.1-16.38-16.65s7-16.66 16-16.66 15.16 6.16 15.16 15.51c0 1.56-.81 2.37-2.5 2.37zm21.66-3.66c-.27-6-3.93-10.35-10.49-10.35a11.22 11.22 0 00-11.11 10.35zM493 172.13a1.94 1.94 0 110-3.85h11.78a1.94 1.94 0 110 3.85zM554.92 187.84c-14.29 0-25-10.63-25-25.18s10.7-25.19 25-25.19 25 10.63 25 25.19-10.7 25.18-25 25.18m0-46.11c-12.33 0-19.84 9.75-19.84 20.93s7.51 20.85 19.84 20.85 19.83-9.69 19.83-20.85-7.51-20.93-19.83-20.93M637.77 187.09c-.94 0-2.44-.33-3.18-2.63L626.74 161h-.14l-7.71 23.5c-.75 2.3-2.24 2.63-3.19 2.63s-2.43-.33-3.18-2.63l-8.73-26.68a4.06 4.06 0 01-.21-1.08 2.22 2.22 0 012.44-2.24 2.29 2.29 0 012.24 1.9l7.51 24.3h.14l8-23.9a2.91 2.91 0 015.69 0l8.12 23.9h.14l7.45-24.3a2.24 2.24 0 012.23-1.9 2.19 2.19 0 012.37 2.17 4.38 4.38 0 01-.2 1.15L641 184.46c-.75 2.3-2.24 2.63-3.19 2.63M678.93 160.35h.14c1.76-3.65 6.36-6.23 10.83-6.23 8.05 0 12.05 5.22 12.05 13.07v17.4a2.31 2.31 0 11-4.6 0v-15.51c0-6.63-2-11.1-8.6-11.1-4.88 0-9.61 3.93-9.61 12.39v14.22a2.31 2.31 0 11-4.61 0v-22.68c0-1.22-.07-4-.13-5.08a2.09 2.09 0 012.16-2.37c.75 0 2.17.28 2.24 2.37zM732.82 172a11.55 11.55 0 0011.57 11.51 11.91 11.91 0 009.14-4.13 2.32 2.32 0 011.76-.88 2 2 0 012.1 2 2.31 2.31 0 01-.68 1.62 16 16 0 01-12.32 5.28c-9.41 0-16.38-7.1-16.38-16.65s7-16.66 16-16.66 15.16 6.16 15.16 15.51c0 1.56-.81 2.37-2.5 2.37zm21.66-3.66c-.27-6-3.93-10.35-10.49-10.35a11.22 11.22 0 00-11.11 10.35zM814 187.1a2.23 2.23 0 01-2.31-2.51v-3.32h-.13a14.61 14.61 0 01-12 6.16c-9.88 0-16.38-7.31-16.38-16.65s6.5-16.66 16.38-16.66a14.41 14.41 0 0112 6.3h.13v-22.95a2.31 2.31 0 114.61 0v47.12a2.22 2.22 0 01-2.3 2.51m-14-3.59c7.11 0 12.18-5.49 12.18-12.73S807.15 158 800 158c-7.65 0-12 5.75-12 12.79s4.33 12.73 12 12.73M48.61 159.53l3.73.44c1.68.19 1.85 1.59 1.85 2.48v4.43H37v-4.43c0-.89.18-2.29 1.85-2.48l3.73-.44v-3.78H20.25v3.78L24 160c1.67.19 1.85 1.59 1.85 2.48V177c0 .91-.18 2.31-1.85 2.5l-3.73.45v3.79h22.31v-3.79l-3.73-.45c-1.67-.19-1.85-1.59-1.85-2.5v-4.43h17.19V177c0 .91-.17 2.31-1.85 2.5l-3.73.45v3.79H71v-3.79l-3.73-.45c-1.68-.19-1.86-1.59-1.86-2.5v-14.55c0-.89.18-2.29 1.86-2.48l3.73-.44v-3.78H48.61zM197.6 155.75H170v3.78l3.3.35c1.18.14 1.94.64 1.94 2.28V177c0 .91-.17 2.32-1.85 2.5l-3.73.45v3.79h27.94c10 0 18.21-4.05 18.21-14s-8.22-14-18.21-14m-2 22.6h-9.4v-17.25h9.37c5.52 0 7.39 2.62 7.39 8.63s-1.87 8.63-7.39 8.63"/><path class="cls-3" d="M262.77 179.52a3.69 3.69 0 01-2.87-2.19L247 157.6c-.93-1.41-1.6-1.85-3-1.85h-21.1v3.78l5 .58a1.46 1.46 0 01.89 2.34L219.33 178a2.59 2.59 0 01-2 1.51l-3.79.44v3.79h17.86v-3.8l-3.08-.31c-1.31-.14-2-1.06-1.36-2.14l1.43-2.34h17.14l1.26 1.94c1.11 1.7-.29 2.4-1.5 2.52l-3.16.33v3.8h24.15v-3.79zm-31.31-9.33l5.28-8.62 5.61 8.62zM150.06 159.53l3.73.44c1.68.19 1.86 1.59 1.86 2.48v14l-14.75-19.52c-.66-.89-1.24-1.18-2.82-1.18h-19.17v3.78l3.73.44c1.68.19 1.86 1.59 1.86 2.48V177c0 .91-.18 2.31-1.86 2.5l-3.73.45v3.79h17.85v-3.79l-3.73-.45c-1.68-.19-1.85-1.59-1.85-2.5v-14l14.74 19.55c.67.9 1.24 1.19 2.83 1.19h13.58v-21.29c0-.89.18-2.29 1.86-2.48l3.73-.44v-3.78h-17.86zM94.89 154.79c-18.15 0-22.84 7.94-22.84 14.93s4.69 15 22.84 15 22.82-8 22.82-15-4.71-14.93-22.82-14.93m0 24.55c-7 0-10-3-10-9.62s2.93-9.61 10-9.61 10 2.95 10 9.61-2.93 9.62-10 9.62M174.22 38.07c-3.08 13.71-4.29 20-6.79 29.93-2.4 9.53-4.25 18.37-7.47 22.66a14.42 14.42 0 01-10.56 5.62 47.42 47.42 0 01-6 .26 47.62 47.62 0 01-6-.26 14.46 14.46 0 01-10.57-5.62c-3.21-4.29-5.06-13.13-7.46-22.66-2.5-9.92-3.71-16.22-6.78-29.93 0 0-3.07.12-4.43.22-1.84.13-3.27.28-4.84.49 0 0 1.77 28.2 2.57 40.14.83 12.57 2.31 33.73 3.7 49.72 0 0 2.57.41 6.85.66 4.5.25 6.5.28 6.5.28 1.85-7 4.14-16.81 6.73-21 2.11-3.39 5.37-3.75 7.21-4a42.75 42.75 0 016.48-.42 42.71 42.71 0 016.47.42c1.84.25 5.09.61 7.21 4 2.6 4.17 4.89 13.94 6.74 21 0 0 2 0 6.49-.28 4.28-.25 6.85-.66 6.85-.66 1.38-16 2.86-37.15 3.7-49.72.8-11.94 2.57-40.14 2.57-40.14-1.57-.21-3-.36-4.84-.49-1.36-.1-4.42-.22-4.42-.22"/><path class="cls-3" d="M209.74 54.71C207.92 36.81 196 33 185.48 31.27a204.67 204.67 0 00-20.7-1.89c-5.26-.33-17.66-.49-21.34-.5s-16.1.17-21.36.5a204.67 204.67 0 00-20.7 1.89C90.9 33 79 36.81 77.13 54.71a167.57 167.57 0 00-.54 18.1 235.56 235.56 0 001.67 24.32c.39 3.64 1.91 14.58 3.86 20.24 2.68 7.79 5.1 10 7.94 12.36 5.19 4.24 13.74 5.54 15.56 5.86 9.66 1.74 29.19 2 37.82 2s28.16-.31 37.81-2c1.83-.32 10.37-1.62 15.56-5.86 2.84-2.31 5.25-4.57 7.94-12.36 1.95-5.66 3.47-16.6 3.85-20.24a229.26 229.26 0 001.68-24.32 167.57 167.57 0 00-.54-18.1m-6.57 30.09c-1 14.3-2.33 22.88-4.15 29.06-1.6 5.41-3.58 9.06-6.46 11.67-4.83 4.37-11.47 5.3-15.37 5.89-8.43 1.24-22.61 1.68-33.75 1.68s-25.33-.44-33.76-1.68c-3.89-.59-10.54-1.52-15.37-5.89-2.88-2.61-4.87-6.26-6.46-11.67C86 107.68 84.76 99.1 83.7 84.8c-.64-8.62-.51-22.6.45-30.11 1.43-11.19 7-16.82 18.89-18.95a172.39 172.39 0 0120.13-2c5.68-.39 15-.57 20.27-.53s14.57.14 20.26.53a172 172 0 0120.12 2c11.91 2.13 17.47 7.76 18.9 18.95 1 7.51 1.09 21.49.45 30.11"/><path class="cls-4" stroke="#fff" stroke-linecap="round" stroke-miterlimit="10" stroke-width=".6" fill="none" d="M303.11 25.01v163.63"/></g></svg>