<svg width="480" height="114" xmlns="http://www.w3.org/2000/svg" aria-hidden="true"><g fill="none" fill-rule="evenodd"><g fill="#FFF"><path d="M377.74 60.74a26.47 26.47 0 009.73-3 17.62 17.62 0 005.84-5.12 15.68 15.68 0 002.5-5.22c2-7.72-1.83-10-11.05-10.43-1.66-.07-2.9-.07-6-.07H335l-14.54 40h18.77l12-33h19.61c1 0 2.25 0 4 .12 3.27.21 3.44 1.39 2.93 3.57a7.87 7.87 0 01-2.3 3.61c-1.41 1.2-3.71 2.07-7 2.33-1.92.16-3.05.21-4.31.23H350.93s20.71 21.16 20.86 21.29c1.56 1.35 2.19 1.64 5.24 1.78h16.59s-16-16.07-15.88-16.08M67.38 76.82h19.16l.26-40H64.64c-.8 0-4.22 0-6.66.21-4.05.37-6.31 1.43-9.85 3.91-.75.53-3.21 2.27-4.17 3L1.14 76.82h17.59l11.86-9.17h36.9l-.11 9.17zm-26.8-16.9l.14-.11 15-11.52c1.56-1.18 2.48-1.85 3.27-2.42a7.37 7.37 0 015.43-1.66h3.34l-.18 15.6v.11h-27zM293.62 62.61c-2.38 4.17-4.28 5.78-9.57 6.65a50.07 50.07 0 01-9 .65 42.09 42.09 0 01-8.25-.65c-4.59-.85-5.32-2.13-4.26-6.68a51.68 51.68 0 012.1-6.41 50.34 50.34 0 013-6.5c2.5-4.4 3.87-5.68 9.4-6.6a51.49 51.49 0 019-.5 56 56 0 018.34.5c4.53.66 5.36 1.84 4.22 6.76a50 50 0 01-2 6.33 51.36 51.36 0 01-3 6.45m14.1-25.66c-5-.91-14.17-1.28-19.91-1.27a156.55 156.55 0 00-20.65 1.27c-9.88 1.6-13.37 3.76-17.16 10.39a53.59 53.59 0 00-3.84 8.66 47.47 47.47 0 00-2.23 8.57c-1 6.5.48 9.76 9.37 11.38a130.82 130.82 0 0019.75 1.4c6.904.013 13.8-.455 20.64-1.4 10.17-1.67 13.47-3.73 17.27-10.39a52.81 52.81 0 003.88-8.56 44.11 44.11 0 002.25-8.63c1.15-6.88-.68-9.82-9.35-11.42M138.28 43.8h21.58c3.57-.12 4.42-.67 6-3.41.42-.73 1.29-2.38 1.79-3.51h-33c-.94 0-4 0-6.11.07a78.17 78.17 0 00-12.52 1.13c-6.62 1.3-9.35 3.86-12.52 9.33a51.19 51.19 0 00-4.06 9.35 34.6 34.6 0 00-2 9.13c-.17 3.94 1.6 7.21 6.68 9.11 3.89 1.44 8.83 1.84 15.38 1.84h32.27c.67 0 1.56 0 2.8-.06 1.49-.06 2.38-.22 3.11-1.57.29-.54.84-1.88 1.07-2.5.54-1.39 1.24-3.34 1.24-3.34h-32.13c-3.91 0-6.06 0-8.45-.68-2.39-.68-3.21-1.73-3.14-4 .11-3.54 3.28-12.75 5.4-15.87 1.65-2.42 2.94-3.74 6.24-4.35a58.28 58.28 0 0110.37-.65M210.72 43.8h21.58c3.57-.12 4.42-.67 6-3.41.42-.73 1.28-2.38 1.79-3.51h-33c-.94 0-4 0-6.11.07-4.2.04-8.39.418-12.53 1.13-6.62 1.3-9.34 3.86-12.52 9.33a51.19 51.19 0 00-4.06 9.35 34.17 34.17 0 00-2 9.13c-.17 3.94 1.59 7.21 6.68 9.11 3.88 1.44 8.82 1.84 15.37 1.84h32.22c.68 0 1.56 0 2.8-.06 1.5-.06 2.39-.22 3.11-1.57.29-.54.84-1.88 1.07-2.5.54-1.39 1.24-3.34 1.24-3.34H200.3c-3.9 0-6 0-8.45-.68-2.45-.68-3.21-1.73-3.14-4 .12-3.54 3.28-12.75 5.41-15.87 1.65-2.42 2.93-3.74 6.23-4.35a58.34 58.34 0 0110.37-.65M454.37 64.22a10.06 10.06 0 01-7 4.37 51 51 0 01-9.82.74h-13.92l9.3-25.57h17.63a32.85 32.85 0 017 .52c2.09.47 2.68 1.8 2.62 4.07-.09 3.58-3.48 12.67-5.84 15.87m18.27-26.18c-4-1.16-9.89-1.19-12.94-1.19h-43l-14.53 39.97h36.65c1.78 0 3.21 0 5.47-.08a87.85 87.85 0 0013.29-1.14c7.09-1.3 11.27-3.74 14.58-9.21a56.09 56.09 0 004.46-9.71 49.43 49.43 0 001.92-7.41c1.14-6.51-.58-9.67-5.87-11.22"/></g><path fill="#FFF" fill-rule="nonzero" d="M198.75 96.14h1.73v7.37h9.26v-7.37h1.73v17h-1.73v-8h-9.26v8h-1.73zM221.53 113.14h-1.73v-7.32l-6.36-9.68h2.16l5.06 8 5.07-8h2.16l-6.36 9.67zM229.86 96.14h5.06a9.8 9.8 0 012 .21 5.38 5.38 0 011.75.72c.508.338.93.79 1.23 1.32a4.16 4.16 0 01.45 2 3.64 3.64 0 01-3 3.72 4 4 0 012.82 1.26 4.25 4.25 0 011 3 5.62 5.62 0 01-.2 1.2 4.2 4.2 0 01-.85 1.57 5.36 5.36 0 01-1.88 1.35 7.61 7.61 0 01-3.26.58h-5.18l.06-16.93zm1.72 7.44h3.48c.419.002.836-.052 1.24-.16a3 3 0 001.1-.51 2.81 2.81 0 00.81-.93c.221-.425.328-.9.31-1.38a3.86 3.86 0 00-.11-.74 2.41 2.41 0 00-.48-1 3 3 0 00-1.09-.83 4.55 4.55 0 00-1.94-.35h-3.32v5.9zm0 8h3.32a7.562 7.562 0 001.75-.2 4.27 4.27 0 001.41-.58 3 3 0 001-1 2.84 2.84 0 00.35-1.44 2.94 2.94 0 00-1.08-2.5 5.24 5.24 0 00-3.17-.81h-3.53l-.05 6.53zM246.7 113.14h-1.73v-17h5.24a6.62 6.62 0 014.09 1.13 4 4 0 011.5 3.4 4.22 4.22 0 01-1.12 3 4.79 4.79 0 01-3.22 1.41l4.89 8.06h-2.11l-4.66-7.9h-2.88v7.9zm0-9.48h3.07a7 7 0 002-.24 3.62 3.62 0 001.29-.64 2.23 2.23 0 00.69-.93 3.2 3.2 0 00.22-1.17 3.12 3.12 0 00-.22-1.14 2.32 2.32 0 00-.69-.94 3.32 3.32 0 00-1.29-.64 7.37 7.37 0 00-2-.23h-3.07v5.93zM260.93 113.14h-1.72v-17h1.72zM265.3 96.14h5.64a9.82 9.82 0 013.18.53 8.64 8.64 0 012.88 1.59 8 8 0 012.08 2.67 8.35 8.35 0 01-2.08 10.08 8.64 8.64 0 01-2.88 1.59 10.1 10.1 0 01-3.18.53h-5.64V96.14zm1.73 15.41h3.36a8.83 8.83 0 003.37-.59 6.94 6.94 0 002.38-1.56 6.24 6.24 0 001.4-2.21 7.33 7.33 0 000-5.11 6.15 6.15 0 00-1.4-2.21 6.94 6.94 0 00-2.38-1.56 8.83 8.83 0 00-3.37-.59h-3.36v13.83z"/><path d="M477.64 104.64h-182.1m-108.46 0H2.64" stroke="#FFF" stroke-width="3.29" stroke-linecap="round"/><g><path d="M176.88 18.14h-1.74v-17h5.23a6.6 6.6 0 014.09 1.13 4 4 0 011.5 3.4 4.22 4.22 0 01-1.12 3 4.79 4.79 0 01-3.22 1.41l4.91 8.06h-2.11l-4.66-7.9h-2.88v7.9zm0-9.48h3.08a6.88 6.88 0 002-.24 3.54 3.54 0 001.29-.64 2.23 2.23 0 00.69-.93 3 3 0 00.22-1.17 2.93 2.93 0 00-.22-1.14 2.32 2.32 0 00-.69-.94 3.25 3.25 0 00-1.29-.64 7.29 7.29 0 00-2-.23h-3.08v5.93zM189.92 12.96c.04.546.176 1.08.4 1.58.214.479.516.913.89 1.28a4.25 4.25 0 001.27.86 4.26 4.26 0 003.76-.28 4.25 4.25 0 001.4-1.36l1.23 1a6.16 6.16 0 01-2.22 1.83 6.36 6.36 0 01-2.61.55 5.87 5.87 0 01-2.31-.45 5.31 5.31 0 01-1.84-1.23 6 6 0 01-1.21-1.87 6.08 6.08 0 01-.44-2.36 6.25 6.25 0 01.43-2.35 5.77 5.77 0 011.2-1.87 5.52 5.52 0 011.8-1.24 5.69 5.69 0 012.23-.44 5.37 5.37 0 012.28.46 4.87 4.87 0 011.69 1.21 5.07 5.07 0 011.05 1.77c.243.7.365 1.438.36 2.18v.72l-9.36.01zm7.63-1.3a3.58 3.58 0 00-1-2.6 3.55 3.55 0 00-2.69-1 3.85 3.85 0 00-1.49.3 4.3 4.3 0 00-1.23.78 3.89 3.89 0 00-.86 1.16 2.92 2.92 0 00-.33 1.34l7.6.02zM213.36 18.14h-1.58v-1.87a4.05 4.05 0 01-.91 1 5.49 5.49 0 01-1.1.67 5.18 5.18 0 01-1.19.39 6.12 6.12 0 01-1.17.12A6.27 6.27 0 01205 18a5.48 5.48 0 01-1.88-1.23 5.71 5.71 0 01-1.24-1.87 6.52 6.52 0 010-4.71 5.71 5.71 0 011.24-1.87A5.65 5.65 0 01205 7.08a6.46 6.46 0 013.58-.32c.41.083.809.21 1.19.38a5.55 5.55 0 011.1.68c.357.28.665.618.91 1V0h1.58v18.14zm-10.22-5.62a5.08 5.08 0 00.3 1.76c.187.522.476 1 .85 1.41a4 4 0 001.33.95 4.32 4.32 0 001.76.35 4.61 4.61 0 001.76-.35 4.33 4.33 0 002.37-2.36 4.83 4.83 0 000-3.51 4.33 4.33 0 00-2.37-2.36 4.61 4.61 0 00-1.79-.35 4.32 4.32 0 00-1.76.35 4 4 0 00-1.33 1 4.19 4.19 0 00-.85 1.41 5.07 5.07 0 00-.27 1.7zM217.92 12.96a5 5 0 00.41 1.58c.214.479.516.913.89 1.28a4.25 4.25 0 001.27.86 4.26 4.26 0 003.76-.28 4.35 4.35 0 001.4-1.36l1.23 1a6.24 6.24 0 01-2.22 1.83 6.36 6.36 0 01-2.61.55 5.87 5.87 0 01-2.31-.45 5.22 5.22 0 01-1.84-1.23 5.8 5.8 0 01-1.21-1.87 6.09 6.09 0 01-.45-2.36 6.26 6.26 0 01.44-2.35 5.46 5.46 0 011.2-1.87 5.52 5.52 0 011.8-1.24 5.65 5.65 0 012.23-.44 5.37 5.37 0 012.28.46 5 5 0 011.69 1.21 5.05 5.05 0 011 1.77c.243.7.365 1.438.36 2.18v.72l-9.32.01zm7.64-1.3a3.62 3.62 0 00-1-2.6 3.56 3.56 0 00-2.69-1 3.81 3.81 0 00-1.49.3 4.3 4.3 0 00-1.24.78 3.89 3.89 0 00-.86 1.16 2.92 2.92 0 00-.33 1.34l7.61.02zM236.14 9.57a2.94 2.94 0 00-1-1.1 2.57 2.57 0 00-1.47-.41c-.28 0-.558.033-.83.1a2.27 2.27 0 00-.75.3 1.47 1.47 0 00-.54.51 1.36 1.36 0 00-.21.77c-.034.456.18.896.56 1.15a5.46 5.46 0 001.65.63l1.61.38a3.85 3.85 0 012 1.07 2.74 2.74 0 01.78 2 3.12 3.12 0 01-.38 1.57 3.08 3.08 0 01-1 1.08 4.33 4.33 0 01-1.4.62 7.306 7.306 0 01-1.61.19 6.002 6.002 0 01-2.41-.49 4.47 4.47 0 01-1.91-1.7l1.37-.93a3.71 3.71 0 001.21 1.22 3.18 3.18 0 001.74.46 4.49 4.49 0 001-.11 2.57 2.57 0 00.85-.34 1.75 1.75 0 00.6-.58 1.55 1.55 0 00.23-.84 1.31 1.31 0 00-.63-1.22 5.53 5.53 0 00-1.51-.58l-1.53-.36c-.2-.053-.46-.133-.78-.24a3.72 3.72 0 01-1-.51 3 3 0 01-.81-.87 2.54 2.54 0 01-.33-1.34 3.17 3.17 0 01.34-1.51c.234-.4.555-.742.94-1a4.27 4.27 0 011.33-.62 6.08 6.08 0 011.54-.2 5.14 5.14 0 012.18.46 3.2 3.2 0 011.56 1.56l-1.39.88zM242.69 2.59a1.08 1.08 0 01-.36.83 1.14 1.14 0 01-1.58 0 1.08 1.08 0 01-.36-.83 1.07 1.07 0 01.36-.83 1.14 1.14 0 011.58 0c.237.21.369.514.36.83zm-.36 15.55h-1.58V6.91h1.58v11.23zM247.01 20.4a5.13 5.13 0 001.81 1.5 5.55 5.55 0 002.49.56 5.37 5.37 0 002-.35 3.51 3.51 0 002.1-2.35 6.38 6.38 0 00.23-1.72v-2a4.32 4.32 0 01-1.87 1.63 5.82 5.82 0 01-2.33.48 6 6 0 01-2.29-.43 5.76 5.76 0 01-1.86-1.19 5.38 5.38 0 01-1.25-1.81 5.63 5.63 0 01-.46-2.28 6.09 6.09 0 01.43-2.28 5.94 5.94 0 011.19-1.85 5.52 5.52 0 011.8-1.24 5.91 5.91 0 012.29-.44c.359 0 .717.034 1.07.1a4.83 4.83 0 011.13.33 5.46 5.46 0 011.12.66c.38.31.715.67 1 1.07V6.91h1.58v11.13a9.22 9.22 0 01-.23 2 4.7 4.7 0 01-.89 1.89 5 5 0 01-1.83 1.44 7 7 0 01-3.07.58 7.68 7.68 0 01-3-.55 7 7 0 01-2.4-1.71l1.24-1.29zm.29-8a4.43 4.43 0 00.32 1.67c.214.505.515.969.89 1.37.379.39.826.704 1.32.93a3.94 3.94 0 001.65.35 4.37 4.37 0 003-1.19 3.73 3.73 0 00.92-1.35 4.25 4.25 0 00.3-1.78 4.84 4.84 0 00-.28-1.67 4.36 4.36 0 00-.84-1.37 4.07 4.07 0 00-1.35-.93 4.4 4.4 0 00-1.77-.35 3.94 3.94 0 00-1.65.35 4.38 4.38 0 00-1.32.93 4.69 4.69 0 00-.89 1.37 4.43 4.43 0 00-.3 1.65v.02zM262.32 6.91c0 .3.06.6.06.9v.9h.05c.18-.315.41-.598.68-.84a4 4 0 01.91-.66 4.36 4.36 0 011.07-.43 3.87 3.87 0 011.11-.16 4.08 4.08 0 013.19 1.14 4.66 4.66 0 011 3.25v7.13h-1.58v-6.22a5.18 5.18 0 00-.65-2.86 2.63 2.63 0 00-2.4-1 5.17 5.17 0 00-.67.1 2.94 2.94 0 00-1.16.52 3.68 3.68 0 00-1.09 1.3 5 5 0 00-.49 2.4v5.76h-1.58V9.38 8.23c0-.46-.05-.91-.08-1.32h1.63zM275.26 12.96a4.73 4.73 0 00.41 1.58 4 4 0 00.89 1.28 4.13 4.13 0 001.27.86 4.24 4.24 0 005.16-1.64l1.22 1a6.08 6.08 0 01-2.22 1.83 6.35 6.35 0 01-2.6.55 5.92 5.92 0 01-2.32-.45 5.27 5.27 0 01-1.83-1.23 5.82 5.82 0 01-1.22-1.87 6.59 6.59 0 010-4.71 5.77 5.77 0 011.2-1.87 5.52 5.52 0 011.8-1.24 5.69 5.69 0 012.23-.44 5.37 5.37 0 012.28.46 4.91 4.91 0 011.7 1.21 5.21 5.21 0 011 1.77c.243.7.365 1.438.36 2.18v.72l-9.33.01zm7.63-1.3a3.58 3.58 0 00-1-2.6 3.55 3.55 0 00-2.69-1 3.8 3.8 0 00-1.48.3 4.3 4.3 0 00-1.26.8 4.11 4.11 0 00-.87 1.16 3 3 0 00-.32 1.34h7.62zM298.71 18.14h-1.57v-1.87a4.09 4.09 0 01-.92 1 5.49 5.49 0 01-1.1.67 5 5 0 01-1.19.39 6.1 6.1 0 01-1.16.12 6.23 6.23 0 01-2.41-.45 5.49 5.49 0 01-3.12-3.1 6.39 6.39 0 01-.1-4.76 5.53 5.53 0 011.23-1.87 5.7 5.7 0 011.89-1.24 6.42 6.42 0 013.57-.32 5.21 5.21 0 012.31 1.09c.36.28.671.618.92 1V0h1.59l.06 18.14zm-10.25-5.62a5.08 5.08 0 00.3 1.76c.187.522.476 1 .85 1.41a4 4 0 001.33.95 4.33 4.33 0 001.77.35 4.64 4.64 0 001.79-.35 4.37 4.37 0 002.36-2.36 4.83 4.83 0 000-3.51 4.25 4.25 0 00-.94-1.41 4.37 4.37 0 00-1.42-1 4.64 4.64 0 00-1.79-.35 4.33 4.33 0 00-1.77.35 4 4 0 00-1.33 1 4.19 4.19 0 00-.85 1.41 5.07 5.07 0 00-.3 1.75z" fill="#FFF" fill-rule="nonzero"/><path d="M477.43 9.6H314.64m-151 0H2.79" stroke="#FFF" stroke-width="3.29" stroke-linecap="round"/></g></g></svg>