<svg xmlns="http://www.w3.org/2000/svg" viewBox="0 0 223 79" aria-hidden="true" fill="#fff"><path d="M73.4 56.8c1.1-.1 1.6-.8 1.6-1.9V27.1c0-1-.4-1.8-1.6-1.9-1.3-.1-6.3-.1-7.6 0-.7.1-1.6.4-1.6 1.9v27.8c0 1.1.4 1.8 1.6 1.9 1.2.1 6.4.1 7.6 0M160.4 56.8c1.1-.1 1.6-.8 1.6-1.9V27.1c0-1-.4-1.8-1.6-1.9-1.3-.1-6.3-.1-7.6 0-.7.1-1.6.4-1.6 1.9v27.8c0 1.1.4 1.8 1.6 1.9 1.3.1 6.5.1 7.6 0M134.7 25.7c.6-.9.8-1.2 1.9-1.2h3.2c1.6.1 1.7.8 1 1.8l-18.7 27.5s-.6.9-1.2 1.7c-.9 1.3-2.1 1.9-3.6 2-.9 0-6 .1-7.1.1-1.1 0-2.1 0-2.8-.1-2.2-.1-3.2-.9-4.5-2.5-.1-.1-.5-.6-.9-1.2-3.6-5.3-18.4-27.2-18.4-27.2-.6-1-.3-2.2 1.1-2.3h8.1c2.4.1 2.4.1 3.5 1.6.1.2 12.2 18.2 15.9 23.7.3.4.5.7.7 1 .2.3.5.6.8.8.3.2.6.5 1.6.5.7 0 1.3-.2 1.7-.5.4-.3.9-.8 1.5-1.7 3.6-5.2 16.1-23.9 16.2-24M49.3 28.8c.9 0 1.6-.1 1.7-1.3v-1.7c-.1-1.1-.6-1.4-1.7-1.4H24c-1.4 0-4.2 0-7 .2-2.2.1-6.7.7-9.4 2.5C2.5 30.4.4 35.3.4 40.3c0 5.1 1.6 10.3 6 13.6 3.3 2.5 9.6 3.5 14.8 3.5h30.5c1.1 0 1.6-.3 1.7-1.4v-2.1c-.1-1.2-.8-1.3-1.7-1.3H29.6c-1.4 0-9.3-.2-11.4-1.1-4.2-1.8-6.5-5.2-6.5-11.2 0-4.4 1.4-7.8 5.1-9.8 2.2-1.2 7.9-1.7 13.4-1.7h19.1zM218.8 28.8c.9 0 1.6-.1 1.7-1.3v-1.7c-.1-1.1-.6-1.4-1.7-1.4h-25.2c-1.4 0-4.2 0-7 .2-2.2.1-6.7.7-9.4 2.5-5.1 3.3-7.2 8.2-7.2 13.2 0 5.1 1.6 10.3 6 13.6 3.3 2.5 9.6 3.5 14.9 3.5h30.5c1.1 0 1.6-.3 1.7-1.4v-2.1c-.1-1.2-.8-1.3-1.7-1.3H199.3c-1.4 0-9.3-.2-11.4-1.1-4.2-1.8-6.5-5.2-6.5-11.2 0-4.4 1.4-7.8 5.1-9.8 2.2-1.2 7.9-1.7 13.4-1.7h18.9zM81.4 77.3c1.3 0 2.8-.7 2.8-2.4s-1.5-2.2-3.3-2.7c-1.8-.6-3.6-1.4-3.6-3.9 0-2.8 2.5-4 4.7-4 1.3 0 2.5.4 3.3 1.1.3.3.4.6.4.8 0 .5-.4.9-.9.9-.2 0-.4 0-.7-.3-.7-.6-1.4-.8-2.2-.8-1.3 0-2.7.7-2.7 2.3 0 1.5 1.3 1.9 2.8 2.4 1.9.6 4.1 1.3 4.1 4.1 0 2.9-2.3 4.2-4.8 4.2-1.4 0-2.8-.4-3.8-1.3-.3-.3-.4-.6-.4-.8 0-.5.4-.9.9-.9.2 0 .5.1.7.3.9.7 1.7 1 2.7 1M92 72.2v4.7h6.5c.8 0 .9.6.9.9 0 .3-.1.9-.9.9h-7.3c-.8 0-1.2-.4-1.2-1.2V65.8c0-.8.4-1.2 1.2-1.2h6.9c.8 0 1 .6 1 .9 0 .3-.1.8-1 .8H92v4.2h5.8c.8 0 .9.6.9.8 0 .3-.1.8-.9.8H92zM105 76.9h2.4c3.4 0 5.8-1.9 5.8-5.3 0-3.5-2.5-5.3-5.8-5.3H105v10.6zm-.8 1.7c-.8 0-1.2-.4-1.2-1.2V65.8c0-.8.4-1.2 1.2-1.2h3.6c3.5 0 7.5 2 7.5 7 0 4.8-3.9 7-7.5 7h-3.6zM121.2 73.5h5.4l-2.7-6.5-2.7 6.5zm6.1 1.7h-6.9l-1.2 2.9c-.3.6-.7.7-.9.7-.5 0-1-.4-1-.9 0-.2 0-.3.2-.6l5.2-11.8c.4-.9.9-1 1.3-1s.9.1 1.3 1l5.2 11.7c.1.3.1.5.1.6 0 .6-.5 1-1 1-.3 0-.7-.1-1-.8l-1.3-2.8zM135.8 67.8v9.9c0 .9-.6 1.1-1 1.1-.3 0-1-.2-1-1.1V66c0-1.2.8-1.5 1.2-1.5.5 0 .9.2 1.5 1l7.1 9.9v-9.8c0-.9.6-1.1 1-1.1.3 0 1 .2 1 1.1v11.7c0 1.2-.8 1.5-1.2 1.5-.5 0-.9-.2-1.5-1l-7.1-10zM69.3 70.7H1.1c-.4 0-.8.3-.8.8s.3.8.8.8h68.2c.4 0 .8-.3.8-.8s-.4-.8-.8-.8M222.2 70.7h-68.6c-.4 0-.8.3-.8.8s.3.8.8.8h68.6c.4 0 .8-.3.8-.8s-.4-.8-.8-.8M78.1 10h5.4l-2.7-6.5-2.7 6.5zm6.2 1.8h-6.9l-1.2 2.9c-.3.6-.7.7-.9.7-.5 0-1-.4-1-.9 0-.2 0-.3.2-.6L79.6 2c.4-.9.9-1 1.3-1s.9.1 1.3 1l5.2 11.7c.1.3.1.5.1.6 0 .6-.5 1-1 1-.3 0-.7-.1-1-.8l-1.2-2.7zM90.1 1.1c0-.9.6-1 .9-1 .3 0 .9.2.9 1v13.2c0 .9-.6 1-.9 1-.3 0-.9-.2-.9-1V1.1zM95.7 1.1c0-.9.6-1 .9-1 .3 0 .9.2.9 1v13.2c0 .9-.6 1-.9 1-.3 0-.9-.2-.9-1V1.1zM101.4 11.2c-.7 0-.9-.5-.9-.8 0-.3.1-.8.9-.8h3.1c.7 0 .9.5.9.8 0 .3-.1.8-.9.8h-3.1zM110.3 4.4v9.9c0 .9-.6 1.1-1 1.1-.3 0-1-.2-1-1.1V2.5c0-1.2.8-1.5 1.2-1.5.5 0 .9.2 1.5 1l7.1 9.9V2.2c0-.9.6-1.1 1-1.1.3 0 1 .2 1 1.1v11.7c0 1.2-.8 1.5-1.2 1.5-.5 0-.9-.2-1.5-1l-7.1-10zM130.8 9.7c0-1.5-.9-2.6-2.6-2.6-1.6 0-2.8 1.2-2.9 2.6h5.5zm-5.5 1.4c.1 1.6 1.4 2.8 3 2.8 1.1 0 1.8-.5 2.4-1 .3-.2.5-.3.6-.3.4 0 .8.3.8.8 0 .2-.1.4-.3.7-.9.9-2.1 1.4-3.5 1.4-2.8 0-4.9-2-4.9-4.9 0-2.9 2.1-5 4.8-5 2.3 0 4.1 1.4 4.4 3.9v.6c0 .7-.3.9-1 .9h-6.3zM145.1 15.4c-.4 0-1-.2-1.2-1l-2.1-6.2-2 6.2c-.3.8-.8 1-1.2 1-.4 0-1-.2-1.3-1L134.8 7c-.1-.2-.1-.3-.1-.4 0-.6.4-.9.9-.9.3 0 .7.1.9.8l2 6.5 2.1-6.3c.3-.8.8-1 1.2-1 .4 0 .9.1 1.2 1l2.1 6.3 2-6.5c.2-.6.6-.8.9-.8.5 0 .9.4.9.9 0 .1 0 .3-.1.5l-2.5 7.3c-.2.8-.8 1-1.2 1M68 9.6H1.1c-.4 0-.8.3-.8.8 0 .4.3.8.8.8H68c.4 0 .8-.3.8-.8-.1-.4-.4-.8-.8-.8M222.2 9.6h-66.9c-.4 0-.8.3-.8.8 0 .4.3.8.8.8h66.9c.4 0 .8-.3.8-.8-.1-.4-.4-.8-.8-.8"/></svg>