<svg xmlns="http://www.w3.org/2000/svg" viewBox="0 0 387 68" aria-hidden="true" fill="#fff"><path d="M346.4 59.2l.2-.7c.8-2 7.1-19.4 7.4-20.3l.2-.5c.4-1.2.9-2.2.2-3.1-.4-.5-1.1-.7-2.6-.7-1 0-3.4 0-7.2-.1h-7.7l1.4-3.9h48.1l-.3.7c-.2.5-.3.8-.4.9l-.1.2c-.2.6-.7 1.2-1.2 1.5-.7.4-1.5.5-2.3.5h-.3c-.6.2-1.5.2-2.6.2h-3.9c-1.5 0-3 .1-4.5.3-2.8.4-3.9 1-5.1 2.9-1 1.7-1.7 3.6-2.4 5.5-1.4 3.8-5 13.5-6 16.3l-.1.3h-10.8zM78.7 59l-1.1-7.2h-24l-.1.2c-3.1 3.3-5.7 5.9-6.5 6.8l-.3.2H36.6l21.5-21.2 1.7-1.7c1.3-1.3 2.6-2.6 3.6-3.5 1.4-1.5 3.5-2.4 5.6-2.5 1.5-.2 3.6-.2 4.2-.2h11.4L89 59.1 78.7 59zm-1.6-11.3l-2-13.9h-1.9c-1.6 0-2 .3-3.5 1.5-.7.6-4.3 4.4-11 11.2l-1.1 1.1c.1.1 19.5.1 19.5.1zM187.5 59.1L198 29.9h23.8c3.9 0 6.5 0 9 .2 2.8.2 4.8 1.1 5.9 2.6.9 1.4 1.1 3.3.5 4.8-.3 1-.6 1.8-1.1 2.7-1.9 3.9-4.5 6.6-11.2 7-1 .1-3.1.1-3.9.1h-6.4c-2.2 0-2.6-.4-4.2-1.9l-1.5-1.5-.8-.9h8.9c1.5 0 2.7-.1 3.6-.1 3.3-.2 4.7-.8 6.1-2.7.6-.9 1-1.7 1.2-2.8.3-.8.2-1.7-.3-2.4-.7-.8-1.7-1.2-2.7-1.2-1.1.2-2.2.2-3.4.2h-14.1l-9.1 25.2-10.8-.1zM323.6 59.2c-4.6 0-4.8 0-6.7-1.8-.2-.2-.5-.4-.7-.7-.8-.8-4.9-5.1-8.5-8.8l-4.3-4.6h8.8c1.5 0 2.7-.1 3.6-.1 3.3-.2 4.7-.8 6-2.7.6-.9 1-1.7 1.2-2.8.3-.8.2-1.7-.3-2.4-.7-.8-1.7-1.2-2.7-1.2-1.1-.1-2.2-.2-3.4-.1h-14.1l-9.1 25.2h-10.9l10.5-29h23.8c3.9 0 6.5 0 9 .2 2.8.2 4.8 1.2 5.9 2.6.9 1.4 1.1 3.3.5 4.8-.3 1-.6 1.8-1.1 2.7-1.9 3.9-4.5 6.6-11.2 7h-.6l-1.4.1 11.6 11.6h-5.9M98.8 59.2h-6.3l.3-.7c.7-1.4 1.1-2.3 1.2-2.6.5-1 .8-1 2-1h22.4c1.2 0 2.4-.1 3.6-.2 1.9-.2 3.5-1.6 3.8-3.6.2-1.7-1.1-2.2-2.5-2.5l-2.2-.5c-.1 0-11.2-2.5-14.8-3.4-3.7-.9-5.9-2.1-6.5-3.6-.4-.9-.4-1.9 0-2.8 1.1-3.7 4-6.4 7.7-7.4 3.3-.9 6.7-1.1 10.1-1.1h27.5l-.3.7c-.1.3-.3.6-.3.8-1 2.2-1.3 2.4-5.2 2.4h-21.5c-.8 0-1.5.1-2.3.2-2 .4-3.4 1.4-3.6 3-.2 1.4 1.1 1.9 2.9 2.4 1.7.5 5.4 1.3 9.1 2.2l.5.1c1.8.4 3.7.9 5.3 1.2 1.1.3 2 .5 2.9.8l.7.2c3.1.8 4.6 1.7 5.3 3.2.4 1 .4 2 .1 3.1-1.1 3.8-4.1 6.8-8 8.1-2.9.6-5.9.9-8.8.9h-7.3l-15.8.1zM256 59.7c-1.9 0-3.9-.1-6.2-.2-6.2-.3-10.3-1.7-12.2-4.3-1.3-1.9-1.6-4.3-.8-7.7.8-3.2 1.9-6.2 3.5-9.1 3.8-7.2 7.6-8.9 20.9-9.2h3.4c2.4 0 5 0 6.8.1 6.6.3 10.8 1.5 12.5 3.9 1.4 1.8 1.5 4.4.5 8.2-.7 3-1.7 5.9-3.2 8.6-3.7 7-8.6 9.3-21.2 9.8l-4-.1zm9-26.5h-1.5c-7.5.2-10.5 1.5-12.8 5.7-1.4 2.7-2.6 5.5-3.4 8.5-.5 1.8-.9 3.9.3 5.6 1.1 1.4 3.3 2.2 6.9 2.4.5 0 1 0 1.5.1h1.4c8.1-.2 10.7-1.4 13.4-6.3 1.2-2.4 2.1-5 2.8-7.6.6-2 1-4.2-.2-5.8-1.1-1.4-3.1-2.1-7-2.3-.3-.3-.8-.3-1.4-.3v-.5.5zM0 59.1l10.5-29.2h23.8c4 0 6.5 0 9 .2 2.8.2 4.8 1.1 5.9 2.6.9 1.4 1.1 3.3.5 4.8-.3 1-.6 1.8-1.1 2.7-1.9 3.9-4.5 6.6-11.2 7-1 .1-3.1.1-3.9.1H27c-2.2 0-2.6-.4-4.2-1.9l-1.5-1.5-.8-.9h8.9c1.5 0 2.7-.1 3.6-.1 3.3-.2 4.7-.8 6.1-2.7.6-.9 1-1.7 1.2-2.8.3-.8.2-1.7-.3-2.4-.7-.8-1.7-1.2-2.7-1.2-1.2-.1-2.2-.2-3.4-.1h-14L10.8 59H0v.1zM145.7 59.1h-6.3l.3-.7c.7-1.4 1.1-2.3 1.2-2.6.5-1 .8-1 2-1h22.4c1.2 0 2.4-.1 3.6-.2 1.9-.2 3.5-1.6 3.8-3.6.2-1.7-1.1-2.2-2.5-2.5L168 48c-.1 0-11.2-2.5-14.8-3.4-3.6-.9-5.9-2.1-6.5-3.6-.4-.9-.4-1.9 0-2.8 1.1-3.7 4-6.4 7.7-7.4 3.3-.9 6.7-1.1 10.1-1.1H192l-.3.7c-.1.3-.3.6-.3.8-1.1 2.3-1.4 2.5-5.3 2.5h-21.5c-.8 0-1.5.1-2.3.2-2 .4-3.4 1.4-3.6 3-.2 1.4 1.1 1.9 2.9 2.4 1.7.5 5.4 1.3 9.1 2.2l.5.1c1.8.4 3.7.9 5.3 1.2 1.1.3 2 .5 2.9.8l.7.2c3.1.8 4.6 1.7 5.3 3.2.4 1 .4 2 .1 3.1-1.1 3.8-4.1 6.8-8 8.1-2.9.6-5.9.9-8.8.9h-23M386 12.7H226.5c-.7 0-1.2-.5-1.2-1.2s.5-1.2 1.2-1.2H386c.7 0 1.2.5 1.2 1.2s-.5 1.2-1.2 1.2zm-223.5 0H1.5c-.7 0-1.2-.5-1.2-1.2s.5-1.2 1.2-1.2h161c.7 0 1.2.5 1.2 1.2s-.5 1.2-1.2 1.2zM181.8 17c.7 0 .9-.5.9-.8s-.1-.8-.9-.8h-5.5l4.1-4c1.1-1.1 2.1-2.2 2.1-3.8 0-2.4-1.9-3.6-4-3.6-1.8 0-3.2 1-3.8 2.4-.1.2-.1.4-.1.5 0 .5.4.8.8.8.3 0 .7-.2.9-.7.4-1 1.2-1.5 2.2-1.5 1.3 0 2.3.9 2.3 2.2 0 1.1-.6 1.9-1.4 2.7l-4.7 4.7c-.4.4-.6.8-.6 1.1 0 .3.1.9 1.2.9h6.5zm7.3.3c3 0 4.3-3 4.3-6.7s-1.3-6.7-4.3-6.7-4.4 3-4.4 6.7c.1 3.8 1.4 6.7 4.4 6.7zm0-1.4c-2.1 0-2.6-3.1-2.6-5.2s.5-5.2 2.6-5.2 2.6 3.1 2.6 5.2-.5 5.2-2.6 5.2zm14.1 1.1c.7 0 .9-.5.9-.8s-.1-.8-.9-.8h-5.5l4.1-4c1.1-1.1 2.1-2.2 2.1-3.8 0-2.4-1.9-3.6-4-3.6-1.8 0-3.2 1-3.8 2.4-.1.2-.1.4-.1.5 0 .5.4.8.8.8.3 0 .7-.2.9-.7.4-1 1.2-1.5 2.2-1.5 1.3 0 2.3.9 2.3 2.2 0 1.1-.6 1.9-1.4 2.7L196 15c-.4.4-.6.8-.6 1.1 0 .3.1.9 1.2.9h6.6zm8 .1c.3 0 .9-.1.9-1v-11c0-.9-.6-1.1-1-1.1-.2 0-.5.1-.9.4l-2.7 2.2c-.4.4-.5.6-.5.8 0 .4.3.8.8.8.2 0 .4-.1.6-.2l1.9-1.6v9.8c0 .8.6.9.9.9z"/></svg>