<svg width="263" height="89" xmlns="http://www.w3.org/2000/svg" aria-hidden="true"><g fill="none" fill-rule="evenodd"><path d="M86.846 88.144c.288 0 .882-.162.882-1.008V76.12c0-.846-.594-1.008-.882-1.008-.306 0-.9.162-.9 1.008v4.464h-6.462V76.12c0-.846-.594-1.008-.882-1.008-.306 0-.9.162-.9 1.008v11.016c0 .846.594 1.008.9 1.008.288 0 .882-.162.882-1.008v-4.968h6.462v4.968c0 .846.594 1.008.9 1.008zm14.022 0c.486 0 .918-.342.918-.9 0-.126-.018-.288-.126-.54l-4.734-10.692c-.36-.792-.792-.9-1.152-.9-.36 0-.81.108-1.152.9L89.834 86.74c-.108.234-.144.396-.144.54 0 .54.432.864.918.864.252 0 .63-.108.864-.666l1.098-2.61h6.3l1.098 2.592c.234.558.612.684.9.684zm-2.646-4.842h-4.986l2.502-5.922 2.484 5.922zm8.028 4.842c.306 0 .9-.162.9-1.008V76.822h3.348c.774 0 .882-.54.882-.774 0-.252-.108-.792-.882-.792h-8.478c-.774 0-.882.54-.882.792 0 .234.108.774.882.774h3.348v10.314c0 .846.594 1.008.882 1.008zm12.276.18c1.908 0 3.33-.702 4.23-1.638.252-.252.342-.522.342-.756 0-.486-.36-.792-.792-.792-.216 0-.432.072-.72.36-.828.864-1.89 1.242-3.042 1.242-2.934 0-4.788-2.268-4.788-5.13 0-2.79 1.89-5.112 4.842-5.112 1.098 0 2.07.45 2.646.972.324.288.54.36.756.36a.823.823 0 00.846-.846c0-.18-.054-.432-.36-.72-.918-.846-2.394-1.332-3.888-1.332-3.87 0-6.786 2.7-6.786 6.678 0 3.924 2.808 6.714 6.714 6.714zm15.894-.18c.288 0 .882-.162.882-1.008V76.12c0-.846-.594-1.008-.882-1.008-.306 0-.9.162-.9 1.008v4.464h-6.462V76.12c0-.846-.594-1.008-.882-1.008-.306 0-.9.162-.9 1.008v11.016c0 .846.594 1.008.9 1.008.288 0 .882-.162.882-1.008v-4.968h6.462v4.968c0 .846.594 1.008.9 1.008zm8.244-.144c2.664 0 4.788-1.17 4.788-3.618 0-1.782-1.188-2.898-2.826-3.096v-.036c1.332-.36 2.232-1.368 2.232-2.772 0-2.43-2.07-3.222-3.996-3.222h-3.33c-.72 0-1.062.342-1.062 1.062v10.62c0 .72.342 1.062 1.062 1.062h3.132zm-.09-7.362h-2.322V76.75h2.034c1.692 0 2.79.54 2.79 1.908 0 1.386-1.134 1.98-2.502 1.98zm-.09 5.85h-2.232V82.15h2.394c1.944 0 3.006.648 3.006 2.142 0 1.728-1.656 2.196-3.168 2.196zm17.586 1.656c.486 0 .918-.342.918-.9 0-.126-.018-.288-.126-.54l-4.734-10.692c-.36-.792-.792-.9-1.152-.9-.36 0-.81.108-1.152.9l-4.788 10.728c-.108.234-.144.396-.144.54 0 .54.432.864.918.864.252 0 .63-.108.864-.666l1.098-2.61h6.3l1.098 2.592c.234.558.612.684.9.684zm-2.646-4.842h-4.986l2.502-5.922 2.484 5.922zm11.286 5.022c1.908 0 3.33-.702 4.23-1.638.252-.252.342-.522.342-.756 0-.486-.36-.792-.792-.792-.216 0-.432.072-.72.36-.828.864-1.89 1.242-3.042 1.242-2.934 0-4.788-2.268-4.788-5.13 0-2.79 1.89-5.112 4.842-5.112 1.098 0 2.07.45 2.646.972.324.288.54.36.756.36a.823.823 0 00.846-.846c0-.18-.054-.432-.36-.72-.918-.846-2.394-1.332-3.888-1.332-3.87 0-6.786 2.7-6.786 6.678 0 3.924 2.808 6.714 6.714 6.714zm15.624-.18c.558 0 .9-.432.9-.882 0-.234-.054-.468-.36-.774l-5.598-5.4 5.184-4.428c.324-.27.378-.558.378-.756 0-.45-.36-.792-.846-.792-.198 0-.45.09-.738.342l-5.976 5.418h-.036V76.12c0-.846-.594-1.008-.882-1.008-.306 0-.9.162-.9 1.008v11.016c0 .846.594 1.008.9 1.008.288 0 .882-.162.882-1.008v-5.724h.036l6.282 6.354c.252.27.558.378.774.378z" fill="#FFF" fill-rule="nonzero"/><path stroke="#FFF" stroke-width="2.432" stroke-linecap="round" d="M69.203 81.252H1.298M260.905 81.252H193"/><g fill="#FFF"><path d="M85.108 64.641c1.373-.14 1.892-.939 1.892-2.292V28.161c0-1.287-.519-2.152-1.892-2.291-1.54-.157-7.67-.157-9.216 0-.825.082-1.892.519-1.892 2.29v34.19c0 1.352.518 2.152 1.891 2.291 1.542.157 7.845.138 9.217 0M186.109 64.641c1.372-.14 1.891-.939 1.891-2.292V28.161c0-1.287-.519-2.152-1.891-2.291-1.542-.157-7.671-.157-9.217 0-.825.082-1.892.519-1.892 2.29v34.19c0 1.352.518 2.152 1.891 2.291 1.542.157 7.845.138 9.218 0M157.371 27.214c.71-1.076.985-1.36 2.21-1.361.298 0 3.359.012 3.788.043 1.873.133 1.957.942 1.135 2.166l-21.92 32.28s-.71 1.045-1.458 2.032c-1.1 1.478-2.459 2.207-4.261 2.3-1.012.048-6.992.078-8.382.078-1.27 0-2.486-.022-3.276-.074-2.554-.157-3.76-1.113-5.227-2.938a17.545 17.545 0 01-1.049-1.408c-4.257-6.274-21.575-31.898-21.575-31.898-.756-1.201-.305-2.557 1.334-2.646 1.089-.057 8.124-.038 9.457 0 2.86.08 2.875.123 4.14 1.883.153.23 14.334 21.38 18.716 27.758.333.479.618.88.835 1.18.22.303.63.718.903.945.346.292.74.609 1.863.609.865 0 1.542-.194 2.004-.543.51-.378 1.013-.973 1.738-2.04 4.251-6.249 18.879-28.15 19.025-28.366M58.138 30.781c1.055 0 1.876-.138 1.947-1.524.028-.57.035-1.375 0-1.941-.079-1.272-.683-1.564-2-1.564H28.58c-1.588 0-4.874 0-8.148.223-2.527.173-7.844.858-11.03 2.855C3.43 32.574.974 38.254 1 44.015.968 49.84 2.833 55.892 8.003 59.692c3.863 2.84 11.185 4.06 17.355 4.06a143278.258 143278.258 0 0035.618-.004c1.317 0 1.922-.293 2-1.565.035-.565.028-1.867 0-2.437-.071-1.386-.891-1.524-1.947-1.524h-.051l-2.563-.004v-.01l-23.246.002c-1.651 0-10.883-.24-13.348-1.31-4.856-2.105-7.544-5.967-7.55-12.885 0-5.103 1.67-9.026 5.997-11.273 2.611-1.356 9.228-1.961 15.669-1.961h22.201zM256.138 30.781c1.055 0 1.876-.138 1.946-1.524.029-.57.036-1.375.001-1.941-.078-1.272-.683-1.564-2-1.564H226.58c-1.588 0-4.874 0-8.148.223-2.527.173-7.844.858-11.03 2.855-5.972 3.744-8.428 9.424-8.402 15.185-.032 5.824 1.833 11.877 7.003 15.677 3.863 2.84 11.186 4.06 17.354 4.06a143273.857 143273.857 0 0035.62-.004c1.317 0 1.92-.293 2-1.565.034-.565.027-1.867-.001-2.437-.071-1.386-.891-1.524-1.947-1.524h-.052l-2.563-.004v-.01l-23.246.002c-1.65 0-10.882-.24-13.347-1.31-4.856-2.105-7.544-5.967-7.55-12.885 0-5.103 1.67-9.026 5.997-11.273 2.611-1.356 9.228-1.961 15.669-1.961h22.2z"/></g><path d="M73.769 13.896c.288 0 .882-.162.882-1.008V8.064h5.058c.756 0 .864-.54.864-.774 0-.216-.108-.756-.864-.756h-5.058v-3.96h5.436c.774 0 .882-.54.882-.774 0-.252-.108-.792-.882-.792h-6.156c-.72 0-1.062.342-1.062 1.062v10.818c0 .846.594 1.008.9 1.008zm12.348.09c1.224 0 2.358-.72 2.772-1.638h.054v.648c0 .774.54.9.81.9.252 0 .792-.126.792-.9V6.012c0-.792-.558-.936-.846-.936-.288 0-.846.144-.846.936v3.744c0 1.692-.954 2.808-2.286 2.808-1.566 0-1.944-1.224-1.944-2.61V6.012c0-.792-.558-.936-.846-.936-.288 0-.846.144-.846.936v4.5c0 1.908.99 3.474 3.186 3.474zm10.08-.09c.414 0 .828-.072 1.098-.198.324-.162.468-.414.468-.666 0-.36-.252-.666-.666-.666-.072 0-.18.018-.306.054a1.472 1.472 0 01-.378.054c-.63 0-1.026-.378-1.026-1.422V6.606h1.638c.666 0 .774-.468.774-.684 0-.234-.108-.702-.774-.702h-1.638V3.564c0-.792-.558-.936-.828-.936-.288 0-.846.144-.846.936V5.22h-.99c-.666 0-.792.468-.792.702 0 .216.126.684.792.684h.99v4.626c0 1.746.864 2.664 2.484 2.664zm6.318.09c1.224 0 2.358-.72 2.772-1.638h.054v.648c0 .774.54.9.81.9.252 0 .792-.126.792-.9V6.012c0-.792-.558-.936-.846-.936-.288 0-.846.144-.846.936v3.744c0 1.692-.954 2.808-2.286 2.808-1.566 0-1.944-1.224-1.944-2.61V6.012c0-.792-.558-.936-.846-.936-.288 0-.846.144-.846.936v4.5c0 1.908.99 3.474 3.186 3.474zm8.208-.09c.288 0 .846-.144.846-.936V9.378c0-1.836.972-2.826 2.304-2.826h.126c.558 0 1.008-.216 1.008-.81 0-.54-.468-.756-.99-.756-1.116 0-2.07.72-2.484 1.674h-.054v-.684c0-.774-.54-.9-.792-.9-.27 0-.81.126-.81.9v6.984c0 .792.558.936.846.936zm9.612.09c1.35 0 2.412-.432 3.24-1.278.216-.234.27-.468.27-.612 0-.432-.324-.702-.72-.702-.18 0-.36.054-.594.27-.522.486-1.17.918-2.196.918-1.494 0-2.718-1.134-2.772-2.592h5.868c.594 0 .9-.27.9-.864 0-.18 0-.306-.036-.558-.324-2.34-1.908-3.582-4.05-3.582-2.502 0-4.41 1.854-4.41 4.518 0 2.682 1.908 4.482 4.5 4.482zm2.304-5.256h-5.076c.108-1.332 1.224-2.412 2.682-2.412 1.566 0 2.358 1.062 2.394 2.412zm12.87 5.166c.396 0 .882-.108 1.242-1.008l4.194-10.602c.108-.252.126-.45.126-.558 0-.504-.396-.864-.9-.864-.306 0-.666.126-.9.72l-3.69 9.864h-.054l-3.726-9.846c-.234-.612-.612-.738-.9-.738-.522 0-.918.378-.918.882 0 .108.036.306.126.54l4.158 10.602c.342.9.864 1.008 1.242 1.008zm11.196.09c1.35 0 2.412-.432 3.24-1.278.216-.234.27-.468.27-.612 0-.432-.324-.702-.72-.702-.18 0-.36.054-.594.27-.522.486-1.17.918-2.196.918-1.494 0-2.718-1.134-2.772-2.592h5.868c.594 0 .9-.27.9-.864 0-.18 0-.306-.036-.558-.324-2.34-1.908-3.582-4.05-3.582-2.502 0-4.41 1.854-4.41 4.518 0 2.682 1.908 4.482 4.5 4.482zm2.304-5.256h-5.076c.108-1.332 1.224-2.412 2.682-2.412 1.566 0 2.358 1.062 2.394 2.412zm10.872 5.166c.288 0 .846-.144.846-.936v-4.5c0-1.908-.99-3.474-3.186-3.474-1.224 0-2.304.684-2.7 1.53h-.036V.936c0-.792-.558-.936-.846-.936-.288 0-.846.144-.846.936V12.96c0 .792.558.936.846.936.288 0 .846-.144.846-.936V9.234c0-1.692.972-2.808 2.304-2.808 1.566 0 1.926 1.224 1.926 2.61v3.924c0 .792.558.936.846.936zm4.572-10.674c.612 0 1.134-.468 1.134-1.08 0-.63-.522-1.098-1.134-1.098-.612 0-1.116.486-1.116 1.098 0 .594.504 1.08 1.116 1.08zm0 10.674c.288 0 .846-.144.846-.936V6.012c0-.792-.558-.936-.846-.936-.288 0-.846.144-.846.936v6.948c0 .792.558.936.846.936zm7.794.09c.954 0 1.89-.27 2.556-.828.324-.27.396-.504.396-.738 0-.36-.27-.684-.702-.684-.18 0-.36.072-.594.252-.45.36-.972.558-1.656.558-1.782 0-2.772-1.44-2.772-3.06 0-1.638 1.026-3.078 2.79-3.078.648 0 1.17.252 1.494.522.324.27.486.324.666.324.432 0 .756-.288.756-.738 0-.216-.108-.486-.432-.738-.666-.54-1.602-.792-2.502-.792-2.61 0-4.554 1.818-4.554 4.5 0 2.718 1.908 4.5 4.554 4.5zm5.778-.09c.288 0 .846-.144.846-.936V.936c0-.792-.558-.936-.846-.936-.288 0-.846.144-.846.936V12.96c0 .792.558.936.846.936zm7.74.09c1.35 0 2.412-.432 3.24-1.278.216-.234.27-.468.27-.612 0-.432-.324-.702-.72-.702-.18 0-.36.054-.594.27-.522.486-1.17.918-2.196.918-1.494 0-2.718-1.134-2.772-2.592h5.868c.594 0 .9-.27.9-.864 0-.18 0-.306-.036-.558-.324-2.34-1.908-3.582-4.05-3.582-2.502 0-4.41 1.854-4.41 4.518 0 2.682 1.908 4.482 4.5 4.482zm2.304-5.256h-5.076c.108-1.332 1.224-2.412 2.682-2.412 1.566 0 2.358 1.062 2.394 2.412z" fill="#FFF" fill-rule="nonzero"/><path d="M261 8.252h-60M61.298 8.252h-60" stroke="#FFF" stroke-width="2.432" stroke-linecap="round"/></g></svg>