<svg viewBox="0 0 387 68" xmlns="http://www.w3.org/2000/svg" aria-hidden="true" fill="#fff"><g fill="none" fill-rule="evenodd"><g fill="#fff"><path d="M160.73 30c-21.579 0-27.475 1.806-31.16 13.407-3.41 10.747-.117 15.334 11.135 16.31 2.719.232 3.586.237 5.903.237 1.685 0 3.89-.047 5.276-.078 12.763-.254 15.57-3.461 18.309-10.676.613-1.619 1.922-5.238 2.62-7.412h-20.685l-1.88 5.243h10.15c-.362 1.032-1.032 2.987-1.495 4-1.316 2.843-4.697 3.396-10.718 3.396-8.49 0-9.851-1.944-6.95-10.559 2.222-6.592 4.757-8.335 15.56-8.674l6.305-.075c1.084 0 5.42-.019 6.881-.019.837 0 1.37-.012 1.774-.023.675-.021 1.35-.15 1.871-.442.72-.402 1.147-1.036 1.448-1.62.148-.286.307-.563.47-.916.173-.397.925-2.08.93-2.084L160.73 30zM64.079 30.008L53.313 59.893h11.898l10.766-29.885zM276.306 30.008l-10.763 29.885h11.893l10.766-29.885zM115.639 30.45c-4.021-.425-7.022-.448-12.667-.448l-16.856.01-10.77 29.88 17.11.004c6.85 0 8.495.003 11.999-.244 11.146-.8 14.807-4.477 17.627-10.641 1.246-2.726 2.722-6.62 2.726-10.168.007-4.402-2.521-7.692-9.17-8.392m-4.674 17.202c-2.897 5.283-5.39 6.016-12.222 6.239-3.93.125-7.652.118-9.381.118L96 35.593h1.776c6.425 0 8.763.011 11.35.24 3.18.279 4.358 1.738 4.412 3.663.068 2.449-1.533 6.256-2.574 8.157M178.132 48.739c-1.112 3.128-1.657 4.594-1.657 6.12 0 4.215 4.413 5.033 13.418 5.033 5.786 0 14.911-.038 16.927-.038 2.014 0 5.194-.04 5.194-.04 2.094 0 2.066-.023 2.592-1.137.472-.996 1.687-4.308 1.687-4.308-12.753 0-15.258-.002-21.122-.004-4.848-.07-6.088-.604-6.041-2.103.02-.802.387-2.184.989-3.746l.533-1.486c4.696-.004 21.463.007 25.778.01l1.924-5.234c-4.267-.004-19.373-.004-25.822-.007l2.4-6.674s7.642-.004 14.821-.01c1.084 0 5.42-.016 6.881-.016.834 0 1.37-.009 1.777-.02.67-.024 1.344-.153 1.87-.447.715-.4 1.142-1.032 1.445-1.615.149-.286.31-.566.468-.923.179-.395.93-2.078.93-2.08h-38.257c-.985 2.686-4.71 12.996-6.735 18.725M349.25 30.015c-.987 2.683-4.71 12.995-6.737 18.724-1.107 3.128-1.657 4.595-1.657 6.122 0 4.214 4.416 5.034 13.418 5.034 5.786 0 14.909-.04 16.928-.04 2.013 0 5.193-.04 5.193-.04 2.092 0 2.066-.024 2.592-1.14.47-.996 1.69-4.305 1.69-4.305-12.758 0-15.261-.002-21.122-.007-4.848-.068-6.091-.602-6.047-2.101.024-.801.39-2.183.99-3.746l.536-1.485c4.695-.005 21.462.007 25.777.01l1.927-5.236c-4.27-.003-19.374-.003-25.824-.005l2.399-6.674 14.821-.007c1.084 0 5.422-.019 6.881-.019.837 0 1.37-.01 1.774-.024.672-.02 1.347-.15 1.871-.444.717-.4 1.147-1.034 1.448-1.616.15-.287.307-.564.467-.922.179-.394.928-2.077.93-2.08H349.25zM235.732 52.285c-.11-.727.14-1.843.766-3.589l6.73-18.687h-11.907c-.964 2.435-4.209 11.647-6.326 17.585-1.124 3.151-1.963 5.518-1.86 7.257.248 4.096 4.776 5.052 13.596 5.052 4.338 0 3.66-.007 8.542-.011 2.016 0 12.946-.094 12.946-.094 2.094 0 2.068-.022 2.594-1.14.47-.997 1.688-4.305 1.688-4.305h-19.287c-5.694 0-7.254-.588-7.482-2.068M332.18 30l-7.228 20.077s-10.73-15.987-11.48-17.146c-1.52-2.366-2.14-2.916-5.917-2.916h-9.285l-10.789 29.868h8.907l7.308-20.254c.863-.141 1.088-.07 1.647.799.628.968 13.066 19.455 13.066 19.455h11.873l10.75-29.882h-8.852zM43.548 30.246c-2.75-.23-5.504-.223-9.564-.223H10.747L0 59.893h11.9l8.921-24.761 13.254.002c.792 0 2-.004 3.372.132 2.362.225 2.773 1.306 2.397 2.808-.204.816-.564 1.713-1.109 2.484-1.189 1.683-2.387 2.265-5.384 2.418-.834.045-2.018.104-3.515.104-.195 0-6.862-.033-10.136-.043 0 0 .012.014.036.033 3.261 3.38 12.353 13.01 13.632 14.208 2.66 2.487 2.232 2.614 7.666 2.614.009 0 4.49.004 7.012.004l.623.005-11.52-11.522c.223-.012.432-.021.595-.033 6.927-.477 9.67-3.365 11.578-7.278.376-.766.806-1.817 1.05-2.738 1.255-4.714-1.402-7.63-6.824-8.084"/></g><path d="M385.713 11.433L253.5 11.5m-119.14-.067L1.5 11.5" stroke="#fff" stroke-width="2.432" stroke-linecap="round"/><path d="M153.48 17.144c.54 0 .9-.378.9-.882 0-.162-.036-.36-.198-.612l-2.988-4.5c1.818-.306 3.078-1.494 3.078-3.366 0-2.592-2.07-3.528-4.536-3.528h-3.024c-.72 0-1.062.342-1.062 1.062v10.818c0 .846.594 1.008.9 1.008.288 0 .882-.162.882-1.008V11.33h1.908l3.348 5.328c.234.378.54.486.792.486zm-3.996-7.308h-2.052V5.768h2.178c1.548 0 2.862.486 2.862 2.016s-1.314 2.052-2.988 2.052zm11.07 7.398c1.35 0 2.412-.432 3.24-1.278.216-.234.27-.468.27-.612 0-.432-.324-.702-.72-.702-.18 0-.36.054-.594.27-.522.486-1.17.918-2.196.918-1.494 0-2.718-1.134-2.772-2.592h5.868c.594 0 .9-.27.9-.864 0-.18 0-.306-.036-.558-.324-2.34-1.908-3.582-4.05-3.582-2.502 0-4.41 1.854-4.41 4.518 0 2.682 1.908 4.482 4.5 4.482zm2.304-5.256h-5.076c.108-1.332 1.224-2.412 2.682-2.412 1.566 0 2.358 1.062 2.394 2.412zm7.794 5.256c1.206 0 2.43-.558 3.078-1.584h.036v.594c0 .774.558.9.828.9.252 0 .81-.126.81-.9V4.184c0-.792-.558-.936-.846-.936-.27 0-.846.144-.846.936v5.562h-.036c-.594-.828-1.656-1.512-3.042-1.512-2.556 0-4.284 1.962-4.284 4.482 0 2.502 1.674 4.518 4.302 4.518zm.288-1.422c-1.854 0-2.826-1.494-2.826-3.096s.972-3.078 2.826-3.078c1.728 0 2.88 1.458 2.88 3.096 0 1.638-1.152 3.078-2.88 3.078zm11.358 1.422c1.35 0 2.412-.432 3.24-1.278.216-.234.27-.468.27-.612 0-.432-.324-.702-.72-.702-.18 0-.36.054-.594.27-.522.486-1.17.918-2.196.918-1.494 0-2.718-1.134-2.772-2.592h5.868c.594 0 .9-.27.9-.864 0-.18 0-.306-.036-.558-.324-2.34-1.908-3.582-4.05-3.582-2.502 0-4.41 1.854-4.41 4.518 0 2.682 1.908 4.482 4.5 4.482zm2.304-5.256h-5.076c.108-1.332 1.224-2.412 2.682-2.412 1.566 0 2.358 1.062 2.394 2.412zm6.516 5.256c1.728 0 3.402-.738 3.402-2.754 0-1.512-1.242-2.16-2.862-2.52-1.296-.288-1.944-.558-1.944-1.278 0-.81.81-1.116 1.584-1.116.576 0 1.134.18 1.638.648.198.18.378.252.54.252.45 0 .738-.342.738-.738 0-.162-.072-.414-.396-.684-.63-.54-1.548-.81-2.466-.81-1.62 0-3.222.774-3.222 2.61 0 1.62 1.35 2.088 2.484 2.358 1.458.342 2.232.63 2.232 1.422 0 .936-.846 1.242-1.692 1.242-.702 0-1.296-.288-1.836-.756-.234-.198-.432-.27-.63-.27-.432 0-.738.324-.738.756 0 .162.072.432.36.684.72.63 1.782.954 2.808.954zm6.408-10.764c.612 0 1.134-.468 1.134-1.08 0-.63-.522-1.098-1.134-1.098-.612 0-1.116.486-1.116 1.098 0 .594.504 1.08 1.116 1.08zm0 10.674c.288 0 .846-.144.846-.936V9.26c0-.792-.558-.936-.846-.936-.288 0-.846.144-.846.936v6.948c0 .792.558.936.846.936zm7.56 4.176c3.546 0 4.716-2.268 4.716-4.752V9.224c0-.774-.558-.9-.81-.9-.27 0-.828.126-.828.9v.612h-.036c-.648-1.062-1.854-1.602-3.078-1.602-2.61 0-4.284 1.998-4.284 4.446 0 2.448 1.692 4.392 4.302 4.392 1.206 0 2.376-.522 3.006-1.476h.036v1.098c0 1.764-.756 3.15-3.006 3.15-.9 0-1.764-.342-2.592-.99-.27-.198-.45-.252-.648-.252a.776.776 0 00-.792.792c0 .216.108.486.432.738.918.738 2.286 1.188 3.582 1.188zm.252-5.67c-1.782 0-2.826-1.44-2.826-3.006 0-1.638 1.044-3.006 2.826-3.006 1.728 0 2.898 1.386 2.898 3.006 0 1.692-1.152 3.006-2.898 3.006zm14.13 1.494c.288 0 .846-.144.846-.936v-4.5c0-1.908-.99-3.474-3.186-3.474-1.224 0-2.358.72-2.772 1.638h-.054v-.648c0-.774-.54-.9-.792-.9-.27 0-.81.126-.81.9v6.984c0 .792.558.936.846.936.288 0 .846-.144.846-.936v-3.744c0-1.692.954-2.808 2.286-2.808 1.566 0 1.944 1.224 1.944 2.61v3.942c0 .792.558.936.846.936zm7.65.09c1.35 0 2.412-.432 3.24-1.278.216-.234.27-.468.27-.612 0-.432-.324-.702-.72-.702-.18 0-.36.054-.594.27-.522.486-1.17.918-2.196.918-1.494 0-2.718-1.134-2.772-2.592h5.868c.594 0 .9-.27.9-.864 0-.18 0-.306-.036-.558-.324-2.34-1.908-3.582-4.05-3.582-2.502 0-4.41 1.854-4.41 4.518 0 2.682 1.908 4.482 4.5 4.482zm2.304-5.256h-5.076c.108-1.332 1.224-2.412 2.682-2.412 1.566 0 2.358 1.062 2.394 2.412zm7.794 5.256c1.206 0 2.43-.558 3.078-1.584h.036v.594c0 .774.558.9.828.9.252 0 .81-.126.81-.9V4.184c0-.792-.558-.936-.846-.936-.27 0-.846.144-.846.936v5.562h-.036c-.594-.828-1.656-1.512-3.042-1.512-2.556 0-4.284 1.962-4.284 4.482 0 2.502 1.674 4.518 4.302 4.518zm.288-1.422c-1.854 0-2.826-1.494-2.826-3.096s.972-3.078 2.826-3.078c1.728 0 2.88 1.458 2.88 3.096 0 1.638-1.152 3.078-2.88 3.078z" fill="#fff" fill-rule="nonzero"/></g></svg>