<svg xmlns="http://www.w3.org/2000/svg" viewBox="0 0 246 69" aria-hidden="true" fill="#fff"><path d="M110.8 17c.7 0 .9-.5.9-.8 0-.3-.1-.8-.9-.8h-5.5l4.1-4c1.1-1.1 2.1-2.2 2.1-3.9 0-2.4-1.9-3.6-4-3.6-1.8 0-3.2 1-3.8 2.4-.1.2-.1.4-.1.5 0 .5.4.8.8.8.3 0 .7-.2.9-.7.4-1 1.2-1.5 2.2-1.5 1.3 0 2.3.9 2.3 2.2 0 1.1-.6 1.9-1.4 2.7l-4.6 4.7c-.5.4-.6.8-.6 1.1 0 .3.1.9 1.2.9h6.4zm7.4.3c3 0 4.3-3 4.3-6.7s-1.3-6.7-4.3-6.7-4.4 3-4.4 6.7c0 3.8 1.3 6.7 4.4 6.7zm0-1.5c-2.1 0-2.6-3.1-2.6-5.2s.5-5.2 2.6-5.2 2.6 3.1 2.6 5.2c-.1 2.2-.6 5.2-2.6 5.2zm14 1.2c.7 0 .9-.5.9-.8 0-.3-.1-.8-.9-.8h-5.5l4.1-4c1.1-1.1 2.1-2.2 2.1-3.9 0-2.4-1.9-3.6-4-3.6-1.8 0-3.2 1-3.8 2.4-.1.2-.1.4-.1.5 0 .5.4.8.8.8.3 0 .7-.2.9-.7.4-1 1.2-1.5 2.2-1.5 1.3 0 2.3.9 2.3 2.2 0 1.1-.6 1.9-1.4 2.7L125 15c-.5.4-.6.8-.6 1.1 0 .3.1.9 1.2.9h6.6zm8 .1c.3 0 .9-.1.9-1v-11c0-1-.6-1.1-1-1.1-.3 0-.5.1-.9.4l-2.7 2.2c-.4.4-.5.6-.5.8 0 .5.3.8.8.8.2 0 .4-.1.6-.2l1.9-1.6v9.8c0 .8.6.9.9.9zM245 12.7h-90.5c-.7 0-1.2-.5-1.2-1.2s.5-1.2 1.2-1.2H245c.7 0 1.2.5 1.2 1.2s-.5 1.2-1.2 1.2zm-153.5 0H1c-.7 0-1.2-.5-1.2-1.2s.5-1.2 1.2-1.2h90.5c.7 0 1.2.5 1.2 1.2s-.5 1.2-1.2 1.2zM147 48l2.5-7.2h23.1L170 48zM232.5 27.5S210.6 48.9 209 50.3c-2.5 2.4-2.8 2.4-6.4 2.4h-1.9l-7.4-25.2h-16.5l9.6 32.5h17.1c9.5 0 9.3 0 15.2-5.6 11.6-11 28.6-27 28.6-27l-14.8.1zM133 60.4c-7 0-7.3-.1-10.4-2.1-.3-.2-.6-.4-1-.7-1.1-.7-18-13.8-20.1-15.6-.5-.4-.7-.6-.8-.8.2 0 .5-.1 1-.1h14.9c1.8 0 4-.1 5-.1 3.1-.1 5-1 6.1-2.8.5-.7.6-1 .7-1.5.2-.9.2-1.6-.1-2.1-.4-.6-1.3-1-2.6-1.1-1-.1-3.4-.1-6.8-.1h-18.8l-9.6 26.4H73.8l11.7-32.4h36.1c4.6 0 7.7.1 11.3.4 3.6.3 6.5 1.5 8.1 3.6 1.2 1.5 1.6 3.4 1.3 5.4-.1.9-.4 2.2-1 3.3-2.3 4.5-6 6.3-13.8 6.8l-2.3.1 18.3 13.2-10.5.2zM44.9 59.9l4.8-13.4H28c-.7 0-2 0-2.6.1-1.9.1-2.8.6-3.5 1.1-.8.6-1.3 1.4-2.1 3.3-.1.4-.3.7-.5 1.2l-.2.5c-.3.9-2.6 7.2-2.6 7.2H0l11.7-32.4h16.5l-4.6 12.6h25.7c1 0 1.6-.1 2.1-.4.3-.2.7-.4 1.1-1.1.1-.1.2-.3.2-.5.1-.1.1-.3.2-.4l3.8-10.2h16.5L61.4 59.9H44.9z"/></svg>