<svg xmlns="http://www.w3.org/2000/svg" viewBox="0 0 321 91" aria-hidden="true" fill="#fff"><path d="M57.3 78.9h14c3.6 0 3.5 0 4.5-2 .8-1.7 2.8-6.8 2.8-6.8H43.9c-3.8 0-7.8 0-13.5-.6-3.9-.4-6.4-1.7-7.7-4-1.8-3.2.1-9.1 1.5-12.2 3.3-7.2 7.5-8.9 16.6-9.4 5.4-.3 9.3-.3 14.1-.3h24.4c4 0 6.1-2.2 7.3-4.7.8-1.7 1.7-3.8 1.7-3.8H46.8c-5.6 0-12.5.1-17.6.5-16.5 1.1-22.7 6.9-26.8 16.3C-.7 59.3-.7 66 1.7 70.6c2.1 3.9 7.6 6.9 14.3 7.6 6 .6 9.5.7 17.8.7h23.5zM301.6 35s-27.3 28-30.5 30.6c-3.8 3.1-4.4 3.3-7.9 3.4h-3.9l-10.5-34h-22.2l12.9 43.9h22c12.7 0 13.7-.1 22.1-7.5 15.4-13.8 38.2-36.8 38.2-36.8l-20.2.4zM159.9 61.5c10.5-.7 15.6-3.2 18.6-9.3.8-1.6 1.2-3.3 1.4-4.5.5-2.8-.2-5.3-1.8-7.4-2.2-2.8-6.1-4.5-11-4.9-4.8-.3-9.1-.4-15.3-.4h-48.1L87.9 78.8h21.6l13-35.8H148c4.6 0 7.7.1 9.2.2 1.8.2 3 .6 3.6 1.5.5.7.5 1.6.2 2.8-.2.7-.3 1.1-.9 2-1.5 2.4-4.2 3.6-8.3 3.8-1.3.1-4.2.2-6.7.2h-20.2c-.7 0-1.2.1-1.4.1.1.2.5.6 1.1 1.1 2.9 2.4 25.8 20.1 27.3 21.1.5.3 1 .7 1.4.9 4.2 2.8 4.5 2.9 14.1 2.9H182l-24.8-17.9 2.7-.2zM186.6 63.1h31l3.5-9.7h-31.2zM320 16.1H198.5c-.9 0-1.6-.7-1.6-1.6s.7-1.6 1.6-1.6H320c.9 0 1.6.7 1.6 1.6s-.7 1.6-1.6 1.6zm-198.5 0H1.5c-.9 0-1.6-.7-1.6-1.6s.7-1.6 1.6-1.6h120c.9 0 1.6.7 1.6 1.6s-.7 1.6-1.6 1.6zM143 23c1 0 1.2-.7 1.2-1.1s-.2-1-1.2-1h-7.3l5.4-5.4c1.5-1.5 2.7-3 2.7-5.1 0-3.2-2.5-4.8-5.4-4.8-2.4 0-4.3 1.3-5.1 3.1-.1.2-.2.5-.2.7 0 .7.5 1.1 1.1 1.1.5 0 .9-.3 1.2-.9.6-1.3 1.6-2.1 3-2.1 1.7 0 3 1.2 3 2.9 0 1.4-.8 2.5-1.9 3.6l-6.2 6.3c-.6.6-.8 1-.8 1.4s.2 1.2 1.6 1.2h8.9v.1zm9.9.4c4 0 5.8-4 5.8-8.9s-1.8-8.9-5.8-8.9c-4.1 0-5.8 4-5.8 8.9 0 5 1.7 8.9 5.8 8.9zm0-1.9c-2.8 0-3.4-4.1-3.4-7s.6-7 3.4-7 3.4 4.1 3.4 7c0 2.9-.7 7-3.4 7zm18.7 1.5c1 0 1.2-.7 1.2-1.1s-.2-1-1.2-1h-7.3l5.4-5.4c1.5-1.5 2.7-3 2.7-5.1 0-3.2-2.5-4.8-5.4-4.8-2.4 0-4.3 1.3-5.1 3.1-.1.2-.2.5-.2.7 0 .7.5 1.1 1.1 1.1.5 0 .9-.3 1.2-.9.6-1.3 1.6-2.1 3-2.1 1.7 0 3 1.2 3 2.9 0 1.4-.8 2.5-1.9 3.6l-6.2 6.3c-.6.6-.8 1-.8 1.4s.2 1.2 1.6 1.2h8.9v.1zm10.6.2c.4 0 1.2-.2 1.2-1.3V7.3c0-1.3-.9-1.5-1.3-1.5-.3 0-.7.1-1.2.6l-3.6 2.9c-.4.3-.5.7-.5.9 0 .6.5 1 1 1 .2 0 .5-.1.8-.3l2.5-2.1v13.1c-.1 1.1.7 1.3 1.1 1.3z"/></svg>